<svg xmlns="http://www.w3.org/2000/svg" width="309.03460693359375" height="300.69525146484375" viewBox="-59.75434875488281 -55.79561233520508 309.03460693359375 300.69525146484375"><title>Neo4j Graph Visualization</title><desc>Created using Neo4j (http://www.neo4j.com/)</desc><g class="layer relationships"><g class="relationship" transform="translate(141.93919868015064 209.9393773781966) rotate(247.9042099367161)"><path class="outline" fill="#A5ABB6" stroke="none" d="M 25 0.5 L 36.73866618327327 0.5 L 36.73866618327327 -0.5 L 25 -0.5 Z M 82.30116618327327 0.5 L 94.03983236654653 0.5 L 94.03983236654653 3.5 L 101.03983236654653 0 L 94.03983236654653 -3.5 L 94.03983236654653 -0.5 L 82.30116618327327 -0.5 Z"/><text text-anchor="middle" pointer-events="none" font-size="8px" fill="#000000" x="59.51991618327327" y="3" transform="rotate(180 59.51991618327327 0)" font-family="sans-serif">ACTED_IN</text></g><g class="relationship" transform="translate(196.96455591308202 166.6364144361865) rotate(215.65286293379063)"><path class="outline" fill="#A5ABB6" stroke="none" d="M 25 0.5 L 36.75138745143148 0.5 L 36.75138745143148 -0.5 L 25 -0.5 Z M 82.31388745143147 0.5 L 94.06527490286295 0.5 L 94.06527490286295 3.5 L 101.06527490286295 0 L 94.06527490286295 -3.5 L 94.06527490286295 -0.5 L 82.31388745143147 -0.5 Z"/><text text-anchor="middle" pointer-events="none" font-size="8px" fill="#000000" x="59.53263745143148" y="3" transform="rotate(180 59.53263745143148 0)" font-family="sans-serif">ACTED_IN</text></g><g class="relationship" transform="translate(220.28020675132368 95.50091646625106) rotate(181.06810887238504)"><path class="outline" fill="#A5ABB6" stroke="none" d="M 25 0.5 L 36.60551221931695 0.5 L 36.60551221931695 -0.5 L 25 -0.5 Z M 82.16801221931695 0.5 L 93.7735244386339 0.5 L 93.7735244386339 3.5 L 100.7735244386339 0 L 93.7735244386339 -3.5 L 93.7735244386339 -0.5 L 82.16801221931695 -0.5 Z"/><text text-anchor="middle" pointer-events="none" font-size="8px" fill="#000000" x="59.38676221931695" y="3" transform="rotate(180 59.38676221931695 0)" font-family="sans-serif">ACTED_IN</text></g><g class="relationship" transform="translate(197.14872905968338 19.47257024985611) rotate(504.3207277053083)"><path class="outline" fill="#A5ABB6" stroke="none" d="M 25 0.5 L 36.885607971203605 0.5 L 36.885607971203605 -0.5 L 25 -0.5 Z M 82.4481079712036 0.5 L 94.33371594240721 0.5 L 94.33371594240721 3.5 L 101.33371594240721 0 L 94.33371594240721 -3.5 L 94.33371594240721 -0.5 L 82.4481079712036 -0.5 Z"/><text text-anchor="middle" pointer-events="none" font-size="8px" fill="#000000" x="59.666857971203605" y="3" transform="rotate(180 59.666857971203605 0)" font-family="sans-serif">ACTED_IN</text></g><g class="relationship" transform="translate(131.61073624104347 -26.795611214514945) rotate(467.1785761787041)"><path class="outline" fill="#A5ABB6" stroke="none" d="M 25 0.5 L 41.38980906047479 0.5 L 41.38980906047479 -0.5 L 25 -0.5 Z M 77.16324656047479 0.5 L 93.55305562094958 0.5 L 93.55305562094958 3.5 L 100.55305562094958 0 L 93.55305562094958 -3.5 L 93.55305562094958 -0.5 L 77.16324656047479 -0.5 Z"/><text text-anchor="middle" pointer-events="none" font-size="8px" fill="#000000" x="59.27652781047479" y="3" transform="rotate(180 59.27652781047479 0)" font-family="sans-serif">WROTE</text></g><g class="relationship" transform="translate(50.92536532761163 -24.573716296896837) rotate(429.6771064090109)"><path class="outline" fill="#A5ABB6" stroke="none" d="M 25 0.5 L 41.38591090156579 0.5 L 41.38591090156579 -0.5 L 25 -0.5 Z M 77.1593484015658 0.5 L 93.54525930313159 0.5 L 93.54525930313159 3.5 L 100.54525930313159 0 L 93.54525930313159 -3.5 L 93.54525930313159 -0.5 L 77.1593484015658 -0.5 Z"/><text text-anchor="middle" pointer-events="none" font-size="8px" fill="#000000" x="59.27262965156579" y="3" font-family="sans-serif">WROTE</text></g><g class="relationship" transform="translate(-9.589819018540123 23.05056145386379) rotate(393.95349185604766)"><path class="outline" fill="#A5ABB6" stroke="none" d="M 25 0.5 L 41.37365438902033 0.5 L 41.37365438902033 -0.5 L 25 -0.5 Z M 77.14709188902033 0.5 L 93.52074627804066 0.5 L 93.52074627804066 3.5 L 100.52074627804066 0 L 93.52074627804066 -3.5 L 93.52074627804066 -0.5 L 77.14709188902033 -0.5 Z"/><text text-anchor="middle" pointer-events="none" font-size="8px" fill="#000000" x="59.26037313902033" y="3" font-family="sans-serif">WROTE</text></g><g class="relationship" transform="translate(-1.1245570165435725 175.53433718601738) rotate(319.2644486324122)"><path class="outline" fill="#A5ABB6" stroke="none" d="M 25 0.5 L 41.73150778762834 0.5 L 41.73150778762834 -0.5 L 25 -0.5 Z M 77.50494528762835 0.5 L 94.23645307525668 0.5 L 94.23645307525668 3.5 L 101.23645307525668 0 L 94.23645307525668 -3.5 L 94.23645307525668 -0.5 L 77.50494528762835 -0.5 Z"/><text text-anchor="middle" pointer-events="none" font-size="8px" fill="#000000" x="59.61822653762834" y="3" font-family="sans-serif">WROTE</text></g><g class="relationship" transform="translate(-30.754347632977545 100.96901092969065) rotate(356.4316603826994)"><path class="outline" fill="#A5ABB6" stroke="none" d="M 25 0.5 L 41.376403839049864 0.5 L 41.376403839049864 -0.5 L 25 -0.5 Z M 77.14984133904986 0.5 L 93.52624517809973 0.5 L 93.52624517809973 3.5 L 100.52624517809973 0 L 93.52624517809973 -3.5 L 93.52624517809973 -0.5 L 77.14984133904986 -0.5 Z"/><text text-anchor="middle" pointer-events="none" font-size="8px" fill="#000000" x="59.263122589049864" y="3" font-family="sans-serif">WROTE</text></g><g class="relationship" transform="translate(67.32057011580024 215.89963799440125) rotate(282.4984165559173)"><path class="outline" fill="#A5ABB6" stroke="none" d="M 25 0.5 L 35.91600465426768 0.5 L 35.91600465426768 -0.5 L 25 -0.5 Z M 82.80662965426768 0.5 L 93.72263430853536 0.5 L 93.72263430853536 3.5 L 100.72263430853536 0 L 93.72263430853536 -3.5 L 93.72263430853536 -0.5 L 82.80662965426768 -0.5 Z"/><text text-anchor="middle" pointer-events="none" font-size="8px" fill="#000000" x="59.36131715426768" y="3" font-family="sans-serif">DIRECTED</text></g></g><g class="layer nodes"><g class="node" transform="translate(94.52853638814783,93.1563801396396)"><circle class="outline" cx="0" cy="0" r="25" fill="#F79767" stroke="#f36924" stroke-width="2px"/><text text-anchor="middle" pointer-events="none" font-family="sans-serif" dy="1.5625" font-size="25" fill="#FFFFFF"/><text text-anchor="middle" pointer-events="none" font-family="sans-serif" dy="1.5625" font-size="25" fill="#FFFFFF"/><text text-anchor="middle" pointer-events="none" font-family="sans-serif" dy="1.5625" font-size="25" fill="#FFFFFF"/><text text-anchor="middle" pointer-events="none" x="0" y="-5" font-size="10px" fill="#FFFFFF" font-family="sans-serif"> Captain</text><text text-anchor="middle" pointer-events="none" x="0" y="5" font-size="10px" fill="#FFFFFF" font-family="sans-serif"> America:</text><text text-anchor="middle" pointer-events="none" x="0" y="15" font-size="10px" fill="#FFFFFF" font-family="sans-serif"> The Fi…</text></g><g class="node" transform="translate(141.93919868015064,209.9393773781966)"><circle class="outline" cx="0" cy="0" r="25" fill="#57C7E3" stroke="#23b3d7" stroke-width="2px"/><text text-anchor="middle" pointer-events="none" font-family="sans-serif" dy="1.5625" font-size="25" fill="#2A2C34"/><text text-anchor="middle" pointer-events="none" font-family="sans-serif" dy="1.5625" font-size="25" fill="#2A2C34"/><text text-anchor="middle" pointer-events="none" x="0" y="0" font-size="10px" fill="#2A2C34" font-family="sans-serif"> Tommy</text><text text-anchor="middle" pointer-events="none" x="0" y="10" font-size="10px" fill="#2A2C34" font-family="sans-serif"> Lee Jon…</text></g><g class="node" transform="translate(196.96455591308202,166.6364144361865)"><circle class="outline" cx="0" cy="0" r="25" fill="#57C7E3" stroke="#23b3d7" stroke-width="2px"/><text text-anchor="middle" pointer-events="none" font-family="sans-serif" dy="1.5625" font-size="25" fill="#2A2C34"/><text text-anchor="middle" pointer-events="none" x="0" y="5" font-size="10px" fill="#2A2C34" font-family="sans-serif"> Sebastian</text></g><g class="node" transform="translate(220.28020675132368,95.50091646625106)"><circle class="outline" cx="0" cy="0" r="25" fill="#57C7E3" stroke="#23b3d7" stroke-width="2px"/><text text-anchor="middle" pointer-events="none" font-family="sans-serif" dy="1.5625" font-size="25" fill="#2A2C34"/><text text-anchor="middle" pointer-events="none" font-family="sans-serif" dy="1.5625" font-size="25" fill="#2A2C34"/><text text-anchor="middle" pointer-events="none" x="0" y="0" font-size="10px" fill="#2A2C34" font-family="sans-serif"> Hayley</text><text text-anchor="middle" pointer-events="none" x="0" y="10" font-size="10px" fill="#2A2C34" font-family="sans-serif"> Atwell</text></g><g class="node" transform="translate(197.14872905968338,19.47257024985611)"><circle class="outline" cx="0" cy="0" r="25" fill="#57C7E3" stroke="#23b3d7" stroke-width="2px"/><text text-anchor="middle" pointer-events="none" font-family="sans-serif" dy="1.5625" font-size="25" fill="#2A2C34"/><text text-anchor="middle" pointer-events="none" font-family="sans-serif" dy="1.5625" font-size="25" fill="#2A2C34"/><text text-anchor="middle" pointer-events="none" x="0" y="0" font-size="10px" fill="#2A2C34" font-family="sans-serif"> Chris</text><text text-anchor="middle" pointer-events="none" x="0" y="10" font-size="10px" fill="#2A2C34" font-family="sans-serif"> Evans</text></g><g class="node" transform="translate(131.61073624104347,-26.795611214514945)"><circle class="outline" cx="0" cy="0" r="25" fill="#57C7E3" stroke="#23b3d7" stroke-width="2px"/><text text-anchor="middle" pointer-events="none" font-family="sans-serif" dy="1.5625" font-size="25" fill="#2A2C34"/><text text-anchor="middle" pointer-events="none" font-family="sans-serif" dy="1.5625" font-size="25" fill="#2A2C34"/><text text-anchor="middle" pointer-events="none" x="0" y="0" font-size="10px" fill="#2A2C34" font-family="sans-serif"> Joe</text><text text-anchor="middle" pointer-events="none" x="0" y="10" font-size="10px" fill="#2A2C34" font-family="sans-serif"> Simon</text></g><g class="node" transform="translate(50.92536532761163,-24.573716296896837)"><circle class="outline" cx="0" cy="0" r="25" fill="#57C7E3" stroke="#23b3d7" stroke-width="2px"/><text text-anchor="middle" pointer-events="none" font-family="sans-serif" dy="1.5625" font-size="25" fill="#2A2C34"/><text text-anchor="middle" pointer-events="none" font-family="sans-serif" dy="1.5625" font-size="25" fill="#2A2C34"/><text text-anchor="middle" pointer-events="none" x="0" y="0" font-size="10px" fill="#2A2C34" font-family="sans-serif"> Joe</text><text text-anchor="middle" pointer-events="none" x="0" y="10" font-size="10px" fill="#2A2C34" font-family="sans-serif"> Simon</text></g><g class="node" transform="translate(-9.589819018540123,23.05056145386379)"><circle class="outline" cx="0" cy="0" r="25" fill="#57C7E3" stroke="#23b3d7" stroke-width="2px"/><text text-anchor="middle" pointer-events="none" font-family="sans-serif" dy="1.5625" font-size="25" fill="#2A2C34"/><text text-anchor="middle" pointer-events="none" x="0" y="5" font-size="10px" fill="#2A2C34" font-family="sans-serif"> Jack Kirby</text></g><g class="node" transform="translate(-1.1245570165435725,175.53433718601738)"><circle class="outline" cx="0" cy="0" r="25" fill="#57C7E3" stroke="#23b3d7" stroke-width="2px"/><text text-anchor="middle" pointer-events="none" font-family="sans-serif" dy="1.5625" font-size="25" fill="#2A2C34"/><text text-anchor="middle" pointer-events="none" x="0" y="5" font-size="10px" fill="#2A2C34" font-family="sans-serif"> Christop…</text></g><g class="node" transform="translate(-30.754347632977545,100.96901092969065)"><circle class="outline" cx="0" cy="0" r="25" fill="#57C7E3" stroke="#23b3d7" stroke-width="2px"/><text text-anchor="middle" pointer-events="none" font-family="sans-serif" dy="1.5625" font-size="25" fill="#2A2C34"/><text text-anchor="middle" pointer-events="none" font-family="sans-serif" dy="1.5625" font-size="25" fill="#2A2C34"/><text text-anchor="middle" pointer-events="none" x="0" y="0" font-size="10px" fill="#2A2C34" font-family="sans-serif"> Stephen</text><text text-anchor="middle" pointer-events="none" x="0" y="10" font-size="10px" fill="#2A2C34" font-family="sans-serif"> McFeely</text></g><g class="node" transform="translate(67.32057011580024,215.89963799440125)"><circle class="outline" cx="0" cy="0" r="25" fill="#57C7E3" stroke="#23b3d7" stroke-width="2px"/><text text-anchor="middle" pointer-events="none" font-family="sans-serif" dy="1.5625" font-size="25" fill="#2A2C34"/><text text-anchor="middle" pointer-events="none" font-family="sans-serif" dy="1.5625" font-size="25" fill="#2A2C34"/><text text-anchor="middle" pointer-events="none" x="0" y="0" font-size="10px" fill="#2A2C34" font-family="sans-serif"> Joe</text><text text-anchor="middle" pointer-events="none" x="0" y="10" font-size="10px" fill="#2A2C34" font-family="sans-serif"> Johnston</text></g></g></svg>