<svg xmlns="http://www.w3.org/2000/svg" width="386.48388671875" height="354.84124755859375" viewBox="-73.80975341796875 -77.13348388671875 386.48388671875 354.84124755859375"><title>Neo4j Graph Visualization</title><desc>Created using Neo4j (http://www.neo4j.com/)</desc><g class="layer relationships"><g class="relationship" transform="translate(26.157148282205956 -45.66123919715458) rotate(387.3175816251189)"><path class="outline" fill="#A5ABB6" stroke="none" d="M 24.018736134675446,-6.953439040707552 L 24.277555179777966,-5.987513214418485 A 172.105171158847 172.105171158847 0 0 1 57.07332020361862,-11.450401212141031 L 57.005057693238534,-12.448068606454683 A 173.105171158847 173.105171158847 0 0 0 24.018736134675446,-6.953439040707552 Z M 76.3854019683219,-12.686528462172362 L 76.34170742886147,-11.687483524633848 A 172.105171158847 172.105171158847 0 0 1 109.26195652643112,-7.033179266359079 L 108.55703339685027,-4.117174571338523 L 116.18345466974257,-5.874359413173838 L 110.20185403253893,-10.921185526386488 L 109.49693090295808,-8.005180831365932 A 173.105171158847 173.105171158847 0 0 0 76.3854019683219,-12.686528462172362"/><text text-anchor="middle" pointer-events="none" font-size="8px" fill="#000000" x="66.69804144153788" y="-9.33879053540042" font-family="sans-serif">trek</text></g><g class="relationship" transform="translate(150.9734242565023 18.809756457743752) rotate(378.33856869460294)"><path class="outline" fill="#A5ABB6" stroke="none" d="M 21.40063509461097,-12.933012701892217 L 21.90063509461097,-12.06698729810778 A 93.14532000832192 93.14532000832192 0 0 1 55.33554727377596,-23.614928055253614 L 55.19450156344051,-24.604931139893225 A 94.14532000832192 94.14532000832192 0 0 0 21.40063509461097,-12.933012701892217 Z M 77.26648552631235,-25.1345516254635 L 77.17308534001776,-24.138922977221526 A 93.14532000832192 93.14532000832192 0 0 1 111.1233883898567,-14.207900321768514 L 109.74972538819625,-11.540870146110727 L 117.57540263333495,-11.447191680503767 L 112.9549390587373,-17.7639405559789 L 111.58127605707685,-15.09691038032111 A 94.14532000832192 94.14532000832192 0 0 0 77.26648552631235,-25.1345516254635"/><text text-anchor="middle" pointer-events="none" font-size="8px" fill="#000000" x="66.22690854417725" y="-22.019146626801373" font-family="sans-serif">road</text></g><g class="relationship" transform="translate(283.6741481177922 62.79544472882398) rotate(182.7958224544043)"><path class="outline" fill="#A5ABB6" stroke="none" d="M 21.40063509461097,12.933012701892217 L 21.90063509461097,12.06698729810778 A 39.536092656835194 39.536092656835194 0 0 0 30.791229103518255,15.838036523991775 L 30.516101957952195,16.799444373851898 A 40.536092656835194 40.536092656835194 0 0 1 21.40063509461097,12.933012701892217 Z M 49.89036185499941,17.521287614041114 L 49.68753815165009,16.542072343858067 A 39.536092656835194 39.536092656835194 0 0 0 58.83409629848092,13.443048600499385 L 57.531584057998955,10.740556812649762 L 65.3569958435437,10.854268670683064 L 60.57077928579021,17.04637098429888 L 59.26826704530824,14.343879196449258 A 40.536092656835194 40.536092656835194 0 0 1 49.89036185499941,17.521287614041114"/><text text-anchor="middle" pointer-events="none" font-size="8px" fill="#000000" x="40.17805699231245" y="20.83606024822644" transform="rotate(180 40.17805699231245 17.83606024822644)" font-family="sans-serif">trek</text></g><g class="relationship" transform="translate(195.9009885889532 58.50903604506054) rotate(464.9315623247586)"><path class="outline" fill="#A5ABB6" stroke="none" d="M 25 0.5 L 51.797089640952606 0.5 L 51.797089640952606 -0.5 L 25 -0.5 Z M 71.1330271409526 0.5 L 97.93011678190521 0.5 L 97.93011678190521 3.5 L 104.93011678190521 0 L 97.93011678190521 -3.5 L 97.93011678190521 -0.5 L 71.1330271409526 -0.5 Z"/><text text-anchor="middle" pointer-events="none" font-size="8px" fill="#000000" x="61.465058390952606" y="3" transform="rotate(180 61.465058390952606 0)" font-family="sans-serif">trek</text></g><g class="relationship" transform="translate(26.157148282205956 -45.66123919715458) rotate(387.3175816251189)"><path class="outline" fill="#A5ABB6" stroke="none" d="M 24.018736134675446,6.953439040707552 L 24.277555179777966,5.987513214418485 A 172.105171158847 172.105171158847 0 0 0 55.74278313859072,11.354180910504567 L 55.66678967477054,12.351289226314123 A 173.105171158847 173.105171158847 0 0 1 24.018736134675446,6.953439040707552 Z M 77.7256460650725,12.62270606171532 L 77.67420915669392,11.624029815649322 A 172.105171158847 172.105171158847 0 0 0 109.26195652643112,7.033179266359079 L 108.55703339685027,4.117174571338523 L 116.18345466974257,5.874359413173838 L 110.20185403253893,10.921185526386488 L 109.49693090295808,8.005180831365932 A 173.105171158847 173.105171158847 0 0 1 77.7256460650725,12.62270606171532"/><text text-anchor="middle" pointer-events="none" font-size="8px" fill="#000000" x="66.69804144153794" y="15.33879053540042" font-family="sans-serif">road</text></g><g class="relationship" transform="translate(150.9734242565023 18.809756457743752) rotate(378.33856869460294)"><path class="outline" fill="#A5ABB6" stroke="none" d="M 25 0.5 L 43.16790517357495 0.5 L 43.16790517357495 -0.5 L 25 -0.5 Z M 89.63274892357495 0.5 L 107.8006540971499 0.5 L 107.8006540971499 3.5 L 114.8006540971499 0 L 107.8006540971499 -3.5 L 107.8006540971499 -0.5 L 89.63274892357495 -0.5 Z"/><text text-anchor="middle" pointer-events="none" font-size="8px" fill="#000000" x="66.40032704857495" y="3" font-family="sans-serif">twowheeler</text></g><g class="relationship" transform="translate(150.9734242565023 18.809756457743752) rotate(378.33856869460294)"><path class="outline" fill="#A5ABB6" stroke="none" d="M 21.40063509461097,12.933012701892217 L 21.90063509461097,12.06698729810778 A 93.14532000832192 93.14532000832192 0 0 0 56.654287085978794,23.79320699971504 L 56.52739925080106,24.78512407149266 A 94.14532000832192 94.14532000832192 0 0 1 21.40063509461097,12.933012701892217 Z M 75.92647929741871,25.250607836395204 L 75.84731249233495,24.253746453367043 A 93.14532000832192 93.14532000832192 0 0 0 111.1233883898567,14.207900321768514 L 109.74972538819625,11.540870146110727 L 117.57540263333495,11.447191680503767 L 112.9549390587373,17.7639405559789 L 111.58127605707685,15.09691038032111 A 94.14532000832192 94.14532000832192 0 0 1 75.92647929741871,25.250607836395204"/><text text-anchor="middle" pointer-events="none" font-size="8px" fill="#000000" x="66.22690854417723" y="28.019146626801373" font-family="sans-serif">trek</text></g><g class="relationship" transform="translate(283.6741481177922 62.79544472882398) rotate(182.7958224544043)"><path class="outline" fill="#A5ABB6" stroke="none" d="M 25 0.5 L 27.214270996145274 0.5 L 27.214270996145274 -0.5 L 25 -0.5 Z M 53.663489746145274 0.5 L 55.87776074229055 0.5 L 55.87776074229055 3.5 L 62.87776074229055 0 L 55.87776074229055 -3.5 L 55.87776074229055 -0.5 L 53.663489746145274 -0.5 Z"/><text text-anchor="middle" pointer-events="none" font-size="8px" fill="#000000" x="40.438880371145274" y="3" transform="rotate(180 40.438880371145274 0)" font-family="sans-serif">two…</text></g><g class="relationship" transform="translate(283.6741481177922 62.79544472882398) rotate(182.7958224544043)"><path class="outline" fill="#A5ABB6" stroke="none" d="M 21.40063509461097,-12.933012701892217 L 21.90063509461097,-12.06698729810778 A 39.536092656835194 39.536092656835194 0 0 1 29.527343562616338,-15.453389974490946 L 29.2202485250314,-16.405068826778162 A 40.536092656835194 40.536092656835194 0 0 0 21.40063509461097,-12.933012701892217 Z M 51.21196903587655,-17.22443301799062 L 50.97654211168733,-16.25254096463963 A 39.536092656835194 39.536092656835194 0 0 1 58.83409629848092,-13.443048600499385 L 57.531584057998955,-10.740556812649762 L 65.3569958435437,-10.854268670683064 L 60.57077928579021,-17.04637098429888 L 59.26826704530824,-14.343879196449258 A 40.536092656835194 40.536092656835194 0 0 0 51.21196903587655,-17.22443301799062"/><text text-anchor="middle" pointer-events="none" font-size="8px" fill="#000000" x="40.17805699231245" y="-14.836060248226438" transform="rotate(180 40.17805699231245 -17.83606024822644)" font-family="sans-serif">road</text></g><g class="relationship" transform="translate(26.157148282205956 -45.66123919715458) rotate(358.3178037633834)"><path class="outline" fill="#A5ABB6" stroke="none" d="M 21.40063509461097,12.933012701892217 L 21.90063509461097,12.06698729810778 A 35.67813011734889 35.67813011734889 0 0 0 27.741920545313835,14.769151403376036 L 27.40564228273366,15.710914075239842 A 36.67813011734889 36.67813011734889 0 0 1 21.40063509461097,12.933012701892217 Z M 49.36246213661533,16.562148451934 L 49.100105196592956,15.597177552879472 A 35.67813011734889 35.67813011734889 0 0 0 55.13306168749931,13.355360756791086 L 53.838708971963186,10.648951503225714 L 61.66374206507452,10.786272629467692 L 56.858865308214135,16.96390642821158 L 55.564512592678014,14.257497174646208 A 36.67813011734889 36.67813011734889 0 0 1 49.36246213661533,16.562148451934"/><text text-anchor="middle" pointer-events="none" font-size="8px" fill="#000000" x="38.33817884775429" y="20.319793090588554" font-family="sans-serif">road</text></g><g class="relationship" transform="translate(110.3380057427587 -48.13348804048951) rotate(411.2587232694593)"><path class="outline" fill="#A5ABB6" stroke="none" d="M 25 0.5 L 55.19439658516686 0.5 L 55.19439658516686 -0.5 L 25 -0.5 Z M 74.53033408516686 0.5 L 104.72473067033371 0.5 L 104.72473067033371 3.5 L 111.72473067033371 0 L 104.72473067033371 -3.5 L 104.72473067033371 -0.5 L 74.53033408516686 -0.5 Z"/><text text-anchor="middle" pointer-events="none" font-size="8px" fill="#000000" x="64.86236533516686" y="3" font-family="sans-serif">trek</text></g><g class="relationship" transform="translate(26.157148282205956 -45.66123919715458) rotate(358.3178037633834)"><path class="outline" fill="#A5ABB6" stroke="none" d="M 25 0.5 L 28.940607505726305 0.5 L 28.940607505726305 -0.5 L 25 -0.5 Z M 48.276545005726305 0.5 L 52.21715251145261 0.5 L 52.21715251145261 3.5 L 59.21715251145261 0 L 52.21715251145261 -3.5 L 52.21715251145261 -0.5 L 48.276545005726305 -0.5 Z"/><text text-anchor="middle" pointer-events="none" font-size="8px" fill="#000000" x="38.608576255726305" y="3" font-family="sans-serif">trek</text></g><g class="relationship" transform="translate(26.157148282205956 -45.66123919715458) rotate(358.3178037633834)"><path class="outline" fill="#A5ABB6" stroke="none" d="M 21.40063509461097,-12.933012701892217 L 21.90063509461097,-12.06698729810778 A 35.67813011734889 35.67813011734889 0 0 1 23.324756149752936,-12.846550321331389 L 22.864671948323597,-13.734425609643395 A 36.67813011734889 36.67813011734889 0 0 0 21.40063509461097,-12.933012701892217 Z M 54.04282403363379,-14.943157795516974 L 53.6528607548465,-14.022327387028277 A 35.67813011734889 35.67813011734889 0 0 1 55.13306168749931,-13.355360756791086 L 53.838708971963186,-10.648951503225714 L 61.66374206507452,-10.786272629467692 L 56.858865308214135,-16.96390642821158 L 55.564512592678014,-14.257497174646208 A 36.67813011734889 36.67813011734889 0 0 0 54.04282403363379,-14.943157795516974"/><text text-anchor="middle" pointer-events="none" font-size="8px" fill="#000000" x="38.33817884775429" y="-14.319793090588554" font-family="sans-serif">Publi…</text></g><g class="relationship" transform="translate(110.3380057427587 -48.13348804048951) rotate(493.9631181651641)"><path class="outline" fill="#A5ABB6" stroke="none" d="M 24.018736134675446,-6.953439040707552 L 24.277555179777966,-5.987513214418485 A 178.50916607313067 178.50916607313067 0 0 1 58.69786392905218,-11.68087087236529 L 58.63186584382784,-12.678690621992814 A 179.50916607313067 179.50916607313067 0 0 0 24.018736134675446,-6.953439040707552 Z M 78.01098236523264,-12.91198494795455 L 77.96902431125064,-11.912865574853413 A 178.50916607313067 178.50916607313067 0 0 1 112.51641626922195,-7.049771424113242 L 111.80994348506597,-4.134141782809859 L 119.43729756295585,-5.887273201299852 L 113.45837998142993,-10.937277612517754 L 112.75190719727395,-8.021647971214371 A 179.50916607313067 179.50916607313067 0 0 0 78.01098236523264,-12.91198494795455"/><text text-anchor="middle" pointer-events="none" font-size="8px" fill="#000000" x="68.3242921687961" y="-9.557095592969546" transform="rotate(180 68.3242921687961 -12.557095592969546)" font-family="sans-serif">trek</text></g><g class="relationship" transform="translate(10.55840899182039 55.324501274711494) rotate(427.08147129153497)"><path class="outline" fill="#A5ABB6" stroke="none" d="M 24.018736134675446,-6.953439040707552 L 24.277555179777966,-5.987513214418485 A 115.84271557868342 115.84271557868342 0 0 1 29.5526545358547,-7.2692881227400505 L 29.339372228472158,-8.246278735467513 A 116.84271557868342 116.84271557868342 0 0 0 24.018736134675446,-6.953439040707552 Z M 75.68900574529557,-8.952878829480653 L 75.50560407210415,-7.969840770059449 A 115.84271557868342 115.84271557868342 0 0 1 80.81732425880759,-6.849461909918344 L 80.12956064972248,-3.929362387981083 L 87.74551707817538,-5.731363409042623 L 81.7343424042544,-10.742927939168025 L 81.0465787951693,-7.822828417230764 A 116.84271557868342 116.84271557868342 0 0 0 75.68900574529557,-8.952878829480653"/><text text-anchor="middle" pointer-events="none" font-size="8px" fill="#000000" x="52.4864177524381" y="-7.421240780224863" font-family="sans-serif">twowheeler</text></g><g class="relationship" transform="translate(54.204682894212034 158.55655729299764) rotate(373.2567676049749)"><path class="outline" fill="#A5ABB6" stroke="none" d="M 24.018736134675446,6.953439040707552 L 24.277555179777966,5.987513214418485 A 114.0501509435498 114.0501509435498 0 0 0 29.110015231129534,7.170029836245604 L 28.89356754644497,8.14632405408912 A 115.0501509435498 115.0501509435498 0 0 1 24.018736134675446,6.953439040707552 Z M 75.23648022416977,8.858207549501486 L 75.05012172131214,7.875725738772829 A 114.0501509435498 114.0501509435498 0 0 0 79.91662292495828,6.842196956533896 L 79.22953790925055,3.9219376904429692 L 86.84507538178839,5.725708464231028 L 80.83273627923523,10.735875977988464 L 80.14565126352751,7.815616711897538 A 115.0501509435498 115.0501509435498 0 0 1 75.23648022416977,8.858207549501486"/><text text-anchor="middle" pointer-events="none" font-size="8px" fill="#000000" x="52.03648429065359" y="13.360165235369877" font-family="sans-serif">twowheeler</text></g><g class="relationship" transform="translate(110.3380057427587 -48.13348804048951) rotate(493.9631181651641)"><path class="outline" fill="#A5ABB6" stroke="none" d="M 24.018736134675446,6.953439040707552 L 24.277555179777966,5.987513214418485 A 178.50916607313067 178.50916607313067 0 0 0 45.247509530559824,10.277870498548424 L 45.10616318902811,11.267830705695957 A 179.50916607313067 179.50916607313067 0 0 1 24.018736134675446,6.953439040707552 Z M 91.56672937128454,11.827143430779074 L 91.4492556915404,10.834067434408524 A 178.50916607313067 178.50916607313067 0 0 0 112.51641626922195,7.049771424113242 L 111.80994348506597,4.134141782809859 L 119.43729756295585,5.887273201299852 L 113.45837998142993,10.937277612517754 L 112.75190719727395,8.021647971214371 A 179.50916607313067 179.50916607313067 0 0 1 91.56672937128454,11.827143430779074"/><text text-anchor="middle" pointer-events="none" font-size="8px" fill="#000000" x="68.32429216879618" y="15.557095592969546" transform="rotate(180 68.32429216879618 12.557095592969546)" font-family="sans-serif">twowheeler</text></g><g class="relationship" transform="translate(10.55840899182039 55.324501274711494) rotate(427.08147129153497)"><path class="outline" fill="#A5ABB6" stroke="none" d="M 24.018736134675446,6.953439040707552 L 24.277555179777966,5.987513214418485 A 115.84271557868342 115.84271557868342 0 0 0 42.885905973194376,9.375033426935545 L 42.78772154978956,10.370201663466773 A 116.84271557868342 116.84271557868342 0 0 1 24.018736134675446,6.953439040707552 Z M 62.18216267593749,10.665869889583234 L 62.114359506276756,9.668171172442655 A 115.84271557868342 115.84271557868342 0 0 0 80.81732425880759,6.849461909918344 L 80.12956064972248,3.929362387981083 L 87.74551707817538,5.731363409042623 L 81.7343424042544,10.742927939168025 L 81.0465787951693,7.822828417230764 A 116.84271557868342 116.84271557868342 0 0 1 62.18216267593749,10.665869889583234"/><text text-anchor="middle" pointer-events="none" font-size="8px" fill="#000000" x="52.48641775243812" y="13.421240780224863" font-family="sans-serif">trek</text></g><g class="relationship" transform="translate(54.204682894212034 158.55655729299764) rotate(373.2567676049749)"><path class="outline" fill="#A5ABB6" stroke="none" d="M 24.018736134675446,-6.953439040707552 L 24.277555179777966,-5.987513214418485 A 114.0501509435498 114.0501509435498 0 0 1 42.437188205920606,-9.306637795200714 L 42.33759414102114,-10.30166594668026 A 115.0501509435498 115.0501509435498 0 0 0 24.018736134675446,-6.953439040707552 Z M 61.732595101308966,-10.59959674730024 L 61.663610500285564,-9.601979022506995 A 114.0501509435498 114.0501509435498 0 0 1 79.91662292495828,-6.842196956533896 L 79.22953790925055,-3.9219376904429692 L 86.84507538178839,-5.725708464231028 L 80.83273627923523,-10.735875977988464 L 80.14565126352751,-7.815616711897538 A 115.0501509435498 115.0501509435498 0 0 0 61.732595101308966,-10.59959674730024"/><text text-anchor="middle" pointer-events="none" font-size="8px" fill="#000000" x="52.03648429065356" y="-7.360165235369877" font-family="sans-serif">trek</text></g><g class="relationship" transform="translate(110.3380057427587 -48.13348804048951) rotate(418.74170566112616)"><path class="outline" fill="#A5ABB6" stroke="none" d="M 25 0.5 L 25.987603081277527 0.5 L 25.987603081277527 -0.5 L 25 -0.5 Z M 45.32354058127753 0.5 L 46.311143662555054 0.5 L 46.311143662555054 3.5 L 53.311143662555054 0 L 46.311143662555054 -3.5 L 46.311143662555054 -0.5 L 45.32354058127753 -0.5 Z"/><text text-anchor="middle" pointer-events="none" font-size="8px" fill="#000000" x="35.65557183127753" y="3" font-family="sans-serif">trek</text></g><g class="relationship" transform="translate(10.55840899182039 55.324501274711494) rotate(475.968235598251)"><path class="outline" fill="#A5ABB6" stroke="none" d="M 24.018736134675446,-6.953439040707552 L 24.277555179777966,-5.987513214418485 A 144.38177647433454 144.38177647433454 0 0 1 50.06061293378149,-10.441613996787424 L 49.98036945675689,-11.438389289616765 A 145.38177647433454 145.38177647433454 0 0 0 24.018736134675446,-6.953439040707552 Z M 69.36684758239947,-11.70205754690474 L 69.31374230969914,-10.7034686274732 A 144.38177647433454 144.38177647433454 0 0 1 95.20839799898432,-6.952217148413047 L 94.51103666735091,-4.034394814352513 L 102.1328770003978,-5.811344430278494 L 96.13821310782888,-10.842646927160427 L 95.44085177619546,-7.924824593099893 A 145.38177647433454 145.38177647433454 0 0 0 69.36684758239947,-11.70205754690474"/><text text-anchor="middle" pointer-events="none" font-size="8px" fill="#000000" x="59.67600792199085" y="-8.39380490331962" transform="rotate(180 59.67600792199085 -11.39380490331962)" font-family="sans-serif">trek</text></g><g class="relationship" transform="translate(-44.80975769684831 169.00598078531823) rotate(353.9756272450825)"><path class="outline" fill="#A5ABB6" stroke="none" d="M 21.40063509461097,12.933012701892217 L 21.90063509461097,12.06698729810778 A 51.75556963129494 51.75556963129494 0 0 0 35.288077933148635,17.47114283401251 L 35.04674464156107,18.44158512615126 A 52.75556963129494 52.75556963129494 0 0 1 21.40063509461097,12.933012701892217 Z M 57.09304983592476,19.17210335926069 L 56.91648781620313,18.1878138423035 A 51.75556963129494 51.75556963129494 0 0 0 70.63231228631442,13.681742169941991 L 69.30759153419828,10.990067054161322 L 77.13367434848865,11.03933960096779 L 72.39860662246926,17.270642324316213 L 71.07388587035312,14.578967208535545 A 52.75556963129494 52.75556963129494 0 0 1 57.09304983592476,19.17210335926069"/><text text-anchor="middle" pointer-events="none" font-size="8px" fill="#000000" x="46.0478484361523" y="22.4722549183764" font-family="sans-serif">road</text></g><g class="relationship" transform="translate(10.55840899182039 55.324501274711494) rotate(475.968235598251)"><path class="outline" fill="#A5ABB6" stroke="none" d="M 24.018736134675446,6.953439040707552 L 24.277555179777966,5.987513214418485 A 144.38177647433454 144.38177647433454 0 0 0 36.656978412553,8.728206859442906 L 36.48390026588703,9.713114954214547 A 145.38177647433454 145.38177647433454 0 0 1 24.018736134675446,6.953439040707552 Z M 82.90524556850322,10.344474355214459 L 82.75901722140921,9.355223491931469 A 144.38177647433454 144.38177647433454 0 0 0 95.20839799898432,6.952217148413047 L 94.51103666735091,4.034394814352513 L 102.1328770003978,5.811344430278494 L 96.13821310782888,10.842646927160427 L 95.44085177619546,7.924824593099893 A 145.38177647433454 145.38177647433454 0 0 1 82.90524556850322,10.344474355214459"/><text text-anchor="middle" pointer-events="none" font-size="8px" fill="#000000" x="59.67600792199087" y="14.39380490331962" transform="rotate(180 59.67600792199087 11.39380490331962)" font-family="sans-serif">twowheeler</text></g><g class="relationship" transform="translate(-44.80975769684831 169.00598078531823) rotate(353.9756272450825)"><path class="outline" fill="#A5ABB6" stroke="none" d="M 25 0.5 L 25.71965015666379 0.5 L 25.71965015666379 -0.5 L 25 -0.5 Z M 66.84465015666379 0.5 L 67.56430031332758 0.5 L 67.56430031332758 3.5 L 74.56430031332758 0 L 67.56430031332758 -3.5 L 67.56430031332758 -0.5 L 66.84465015666379 -0.5 Z"/><text text-anchor="middle" pointer-events="none" font-size="8px" fill="#000000" x="46.28215015666379" y="3" font-family="sans-serif">twowhe…</text></g><g class="relationship" transform="translate(-44.80975769684831 169.00598078531823) rotate(353.9756272450825)"><path class="outline" fill="#A5ABB6" stroke="none" d="M 21.40063509461097,-12.933012701892217 L 21.90063509461097,-12.06698729810778 A 51.75556963129494 51.75556963129494 0 0 1 36.57795357595234,-17.774435306635134 L 36.36154273526219,-18.75073769218573 A 52.75556963129494 52.75556963129494 0 0 0 21.40063509461097,-12.933012701892217 Z M 55.760670333232596,-19.393540025356593 L 55.60936402607372,-18.405053100094584 A 51.75556963129494 51.75556963129494 0 0 1 70.63231228631442,-13.681742169941991 L 69.30759153419828,-10.990067054161322 L 77.13367434848865,-11.03933960096779 L 72.39860662246926,-17.270642324316213 L 71.07388587035312,-14.578967208535545 A 52.75556963129494 52.75556963129494 0 0 0 55.760670333232596,-19.393540025356593"/><text text-anchor="middle" pointer-events="none" font-size="8px" fill="#000000" x="46.047848436152286" y="-16.4722549183764" font-family="sans-serif">trek</text></g><g class="relationship" transform="translate(-44.80975769684831 169.00598078531823) rotate(398.74679941585225)"><path class="outline" fill="#A5ABB6" stroke="none" d="M 25 0.5 L 50.50381031127413 0.5 L 50.50381031127413 -0.5 L 25 -0.5 Z M 69.83974781127412 0.5 L 95.34355812254826 0.5 L 95.34355812254826 3.5 L 102.34355812254826 0 L 95.34355812254826 -3.5 L 95.34355812254826 -0.5 L 69.83974781127412 -0.5 Z"/><text text-anchor="middle" pointer-events="none" font-size="8px" fill="#000000" x="60.17177906127413" y="3" font-family="sans-serif">trek</text></g><g class="relationship" transform="translate(54.50795965911713 248.70775500968156) rotate(329.0725476777747)"><path class="outline" fill="#A5ABB6" stroke="none" d="M 25 0.5 L 49.732598709761135 0.5 L 49.732598709761135 -0.5 L 25 -0.5 Z M 69.06853620976113 0.5 L 93.80113491952227 0.5 L 93.80113491952227 3.5 L 100.80113491952227 0 L 93.80113491952227 -3.5 L 93.80113491952227 -0.5 L 69.06853620976113 -0.5 Z"/><text text-anchor="middle" pointer-events="none" font-size="8px" fill="#000000" x="59.400567459761135" y="3" font-family="sans-serif">trek</text></g></g><g class="layer nodes"><g class="node" transform="translate(26.157148282205956,-45.66123919715458)"><circle class="outline" cx="0" cy="0" r="25" fill="#F16667" stroke="#eb2728" stroke-width="2px"/><text text-anchor="middle" pointer-events="none" font-family="sans-serif" dy="1.5625" font-size="25" fill="#FFFFFF"/><text text-anchor="middle" pointer-events="none" x="0" y="5" font-size="10px" fill="#FFFFFF" font-family="sans-serif"> Darjeeling</text></g><g class="node" transform="translate(162.42253227499546,184.05196977609117)"><circle class="outline" cx="0" cy="0" r="25" fill="#D9C8AE" stroke="#c0a378" stroke-width="2px"/><text text-anchor="middle" pointer-events="none" font-family="sans-serif" dy="1.5625" font-size="25" fill="#2A2C34"/><text text-anchor="middle" pointer-events="none" x="0" y="5" font-size="10px" fill="#2A2C34" font-family="sans-serif"> Sandak…</text></g><g class="node" transform="translate(150.9734242565023,18.809756457743752)"><circle class="outline" cx="0" cy="0" r="25" fill="#8DCC93" stroke="#5db665" stroke-width="2px"/><text text-anchor="middle" pointer-events="none" font-family="sans-serif" dy="1.5625" font-size="25" fill="#2A2C34"/><text text-anchor="middle" pointer-events="none" x="0" y="5" font-size="10px" fill="#2A2C34" font-family="sans-serif"> Tumbling</text></g><g class="node" transform="translate(283.6741481177922,62.79544472882398)"><circle class="outline" cx="0" cy="0" r="25" fill="#8DCC93" stroke="#5db665" stroke-width="2px"/><text text-anchor="middle" pointer-events="none" font-family="sans-serif" dy="1.5625" font-size="25" fill="#2A2C34"/><text text-anchor="middle" pointer-events="none" x="0" y="5" font-size="10px" fill="#2A2C34" font-family="sans-serif"> Gairibus</text></g><g class="node" transform="translate(195.9009885889532,58.50903604506054)"><circle class="outline" cx="0" cy="0" r="25" fill="#8DCC93" stroke="#5db665" stroke-width="2px"/><text text-anchor="middle" pointer-events="none" font-family="sans-serif" dy="1.5625" font-size="25" fill="#2A2C34"/><text text-anchor="middle" pointer-events="none" x="0" y="5" font-size="10px" fill="#2A2C34" font-family="sans-serif"> BhikeBh…</text></g><g class="node" transform="translate(110.3380057427587,-48.13348804048951)"><circle class="outline" cx="0" cy="0" r="25" fill="#F16667" stroke="#eb2728" stroke-width="2px"/><text text-anchor="middle" pointer-events="none" font-family="sans-serif" dy="1.5625" font-size="25" fill="#FFFFFF"/><text text-anchor="middle" pointer-events="none" x="0" y="5" font-size="10px" fill="#FFFFFF" font-family="sans-serif"> Rimbik</text></g><g class="node" transform="translate(10.55840899182039,55.324501274711494)"><circle class="outline" cx="0" cy="0" r="25" fill="#8DCC93" stroke="#5db665" stroke-width="2px"/><text text-anchor="middle" pointer-events="none" font-family="sans-serif" dy="1.5625" font-size="25" fill="#2A2C34"/><text text-anchor="middle" pointer-events="none" x="0" y="5" font-size="10px" fill="#2A2C34" font-family="sans-serif"> Sirikhola</text></g><g class="node" transform="translate(54.204682894212034,158.55655729299764)"><circle class="outline" cx="0" cy="0" r="25" fill="#8DCC93" stroke="#5db665" stroke-width="2px"/><text text-anchor="middle" pointer-events="none" font-family="sans-serif" dy="1.5625" font-size="25" fill="#2A2C34"/><text text-anchor="middle" pointer-events="none" x="0" y="5" font-size="10px" fill="#2A2C34" font-family="sans-serif"> Gurdum</text></g><g class="node" transform="translate(-44.80975769684831,169.00598078531823)"><circle class="outline" cx="0" cy="0" r="25" fill="#8DCC93" stroke="#5db665" stroke-width="2px"/><text text-anchor="middle" pointer-events="none" font-family="sans-serif" dy="1.5625" font-size="25" fill="#2A2C34"/><text text-anchor="middle" pointer-events="none" x="0" y="5" font-size="10px" fill="#2A2C34" font-family="sans-serif"> Rammam</text></g><g class="node" transform="translate(54.50795965911713,248.70775500968156)"><circle class="outline" cx="0" cy="0" r="25" fill="#D9C8AE" stroke="#c0a378" stroke-width="2px"/><text text-anchor="middle" pointer-events="none" font-family="sans-serif" dy="1.5625" font-size="25" fill="#2A2C34"/><text text-anchor="middle" pointer-events="none" x="0" y="5" font-size="10px" fill="#2A2C34" font-family="sans-serif"> Sabargr…</text></g></g></svg>