<svg xmlns="http://www.w3.org/2000/svg" width="163.68614196777344" height="243.28079223632812" viewBox="-1.3637542724609375 -20.655378341674805 163.68614196777344 243.28079223632812"><title>Neo4j Graph Visualization</title><desc>Created using Neo4j (http://www.neo4j.com/)</desc><g class="layer relationships"><g class="relationship" transform="translate(133.32238462974743 8.344621186655345) rotate(521.9936619907703)"><path class="outline" fill="#A5ABB6" stroke="none" d="M 21.40063509461097,12.933012701892217 L 21.90063509461097,12.06698729810778 A 59.94124116548946 59.94124116548946 0 0 0 39.205116327210874,18.744072885939396 L 38.99380706661056,19.72149213906701 A 60.94124116548946 60.94124116548946 0 0 1 21.40063509461097,12.933012701892217 Z M 61.05468921209086,20.401676697547686 L 60.90399596464293,19.4130961266413 A 59.94124116548946 59.94124116548946 0 0 0 78.58695526029031,13.814748761113714 L 77.24986084598666,11.129198812362437 L 85.0760875430939,11.142453452530411 L 80.36974781269518,17.395482026115417 L 79.03265339839153,14.709932077364138 A 60.94124116548946 60.94124116548946 0 0 1 61.05468921209086,20.401676697547686"/><text text-anchor="middle" pointer-events="none" font-size="8px" fill="#000000" x="50.00860703147781" y="23.56888296413063" transform="rotate(180 50.00860703147781 20.56888296413063)" font-family="sans-serif">road</text></g><g class="relationship" transform="translate(31.129642838968884 41.56155417276278) rotate(451.87672582707063)"><path class="outline" fill="#A5ABB6" stroke="none" d="M 25 0.5 L 40.16765868807964 0.5 L 40.16765868807964 -0.5 L 25 -0.5 Z M 59.50359618807964 0.5 L 74.67125487615928 0.5 L 74.67125487615928 3.5 L 81.67125487615928 0 L 74.67125487615928 -3.5 L 74.67125487615928 -0.5 L 59.50359618807964 -0.5 Z"/><text text-anchor="middle" pointer-events="none" font-size="8px" fill="#000000" x="49.83562743807964" y="3" transform="rotate(180 49.83562743807964 0)" font-family="sans-serif">trek</text></g><g class="relationship" transform="translate(27.636245854110754 148.17559074563025) rotate(385.0501801524998)"><path class="outline" fill="#A5ABB6" stroke="none" d="M 25 0.5 L 40.50296743423584 0.5 L 40.50296743423584 -0.5 L 25 -0.5 Z M 59.83890493423584 0.5 L 75.34187236847168 0.5 L 75.34187236847168 3.5 L 82.34187236847168 0 L 75.34187236847168 -3.5 L 75.34187236847168 -0.5 L 59.83890493423584 -0.5 Z"/><text text-anchor="middle" pointer-events="none" font-size="8px" fill="#000000" x="50.17093618423584" y="3" font-family="sans-serif">trek</text></g><g class="relationship" transform="translate(133.32238462974743 8.344621186655345) rotate(521.9936619907703)"><path class="outline" fill="#A5ABB6" stroke="none" d="M 25 0.5 L 40.55986647467727 0.5 L 40.55986647467727 -0.5 L 25 -0.5 Z M 59.89580397467727 0.5 L 75.45567044935454 0.5 L 75.45567044935454 3.5 L 82.45567044935454 0 L 75.45567044935454 -3.5 L 75.45567044935454 -0.5 L 59.89580397467727 -0.5 Z"/><text text-anchor="middle" pointer-events="none" font-size="8px" fill="#000000" x="50.22783522467727" y="3" transform="rotate(180 50.22783522467727 0)" font-family="sans-serif">trek</text></g><g class="relationship" transform="translate(133.32238462974743 8.344621186655345) rotate(521.9936619907703)"><path class="outline" fill="#A5ABB6" stroke="none" d="M 21.40063509461097,-12.933012701892217 L 21.90063509461097,-12.06698729810778 A 59.94124116548946 59.94124116548946 0 0 1 23.47127269481227,-12.942648685375254 L 22.997475649066505,-13.823282752080935 A 60.94124116548946 60.94124116548946 0 0 0 21.40063509461097,-12.933012701892217 Z M 77.38400019115508,-15.500136557790476 L 76.96535521402838,-14.591986579468298 A 59.94124116548946 59.94124116548946 0 0 1 78.58695526029031,-13.814748761113714 L 77.24986084598666,-11.129198812362437 L 85.0760875430939,-11.142453452530411 L 80.36974781269518,-17.395482026115417 L 79.03265339839153,-14.709932077364138 A 60.94124116548946 60.94124116548946 0 0 0 77.38400019115508,-15.500136557790476"/><text text-anchor="middle" pointer-events="none" font-size="8px" fill="#000000" x="50.00860703147783" y="-17.56888296413063" transform="rotate(180 50.00860703147783 -20.56888296413063)" font-family="sans-serif">PublicTrans…</text></g></g><g class="layer nodes"><g class="node" transform="translate(133.32238462974743,8.344621186655345)"><circle class="outline" cx="0" cy="0" r="25" fill="#F16667" stroke="#eb2728" stroke-width="2px"/><text text-anchor="middle" pointer-events="none" font-family="sans-serif" dy="1.5625" font-size="25" fill="#FFFFFF"/><text text-anchor="middle" pointer-events="none" x="0" y="5" font-size="10px" fill="#FFFFFF" font-family="sans-serif"> Darjeeling</text></g><g class="node" transform="translate(124.88125260048531,193.62541171851012)"><circle class="outline" cx="0" cy="0" r="25" fill="#D9C8AE" stroke="#c0a378" stroke-width="2px"/><text text-anchor="middle" pointer-events="none" font-family="sans-serif" dy="1.5625" font-size="25" fill="#2A2C34"/><text text-anchor="middle" pointer-events="none" x="0" y="5" font-size="10px" fill="#2A2C34" font-family="sans-serif"> Sandak…</text></g><g class="node" transform="translate(31.129642838968884,41.56155417276278)"><circle class="outline" cx="0" cy="0" r="25" fill="#F16667" stroke="#eb2728" stroke-width="2px"/><text text-anchor="middle" pointer-events="none" font-family="sans-serif" dy="1.5625" font-size="25" fill="#FFFFFF"/><text text-anchor="middle" pointer-events="none" x="0" y="5" font-size="10px" fill="#FFFFFF" font-family="sans-serif"> Rimbik</text></g><g class="node" transform="translate(27.636245854110754,148.17559074563025)"><circle class="outline" cx="0" cy="0" r="25" fill="#8DCC93" stroke="#5db665" stroke-width="2px"/><text text-anchor="middle" pointer-events="none" font-family="sans-serif" dy="1.5625" font-size="25" fill="#2A2C34"/><text text-anchor="middle" pointer-events="none" x="0" y="5" font-size="10px" fill="#2A2C34" font-family="sans-serif"> BhikeBh…</text></g></g></svg>