<svg xmlns="http://www.w3.org/2000/svg" width="1026.439453125" height="862.996826171875" viewBox="-602.8099365234375 -172.24435424804688 1026.439453125 862.996826171875"><title>Neo4j Graph Visualization</title><desc>Created using Neo4j (http://www.neo4j.com/)</desc><g class="layer relationships"><g class="relationship" transform="translate(-113.44012740079545 102.2876147052138) rotate(444.03712125771085)"><path class="outline" fill="#A5ABB6" stroke="none" d="M 25 0.5 L 27.17550760424905 0.5 L 27.17550760424905 -0.5 L 25 -0.5 Z M 58.06222635424905 0.5 L 60.2377339584981 0.5 L 60.2377339584981 3.5 L 67.2377339584981 0 L 60.2377339584981 -3.5 L 60.2377339584981 -0.5 L 58.06222635424905 -0.5 Z"/><text text-anchor="middle" pointer-events="none" font-size="8px" fill="#000000" x="42.61886697924905" y="3" font-family="sans-serif">FRO…</text></g><g class="relationship" transform="translate(-113.44012740079545 102.2876147052138) rotate(319.2003930927566)"><path class="outline" fill="#A5ABB6" stroke="none" d="M 24.018736134675446,6.953439040707552 L 24.277555179777966,5.987513214418485 A 82.40601570495002 82.40601570495002 0 0 0 25.681734197134773,6.350548509077228 L 25.439954915517294,7.3208797818807625 A 83.40601570495002 83.40601570495002 0 0 1 24.018736134675446,6.953439040707552 Z M 62.889227608920294,7.985043188647396 L 62.682007230538666,7.0067489002129975 A 82.40601570495002 82.40601570495002 0 0 0 64.0981760344492,6.693732516003493 L 63.42495911936048,3.770245046347014 L 71.03184961616243,5.610140959072583 L 64.99579858790081,10.591715808878797 L 64.32258167281209,7.668228339222319 A 83.40601570495002 83.40601570495002 0 0 1 62.889227608920294,7.985043188647396"/><text text-anchor="middle" pointer-events="none" font-size="8px" fill="#000000" x="44.13569323577003" y="12.282394937566863" font-family="sans-serif">FROM…</text></g><g class="relationship" transform="translate(-113.44012740079545 102.2876147052138) rotate(392.61817265429306)"><path class="outline" fill="#A5ABB6" stroke="none" d="M 25 0.5 L 30.26790003461268 0.5 L 30.26790003461268 -0.5 L 25 -0.5 Z M 122.80305628461268 0.5 L 128.07095631922536 0.5 L 128.07095631922536 3.5 L 135.07095631922536 0 L 128.07095631922536 -3.5 L 128.07095631922536 -0.5 L 122.80305628461268 -0.5 Z"/><text text-anchor="middle" pointer-events="none" font-size="8px" fill="#000000" x="76.53547815961268" y="3" font-family="sans-serif">FROM_TO_CHEAPEST</text></g><g class="relationship" transform="translate(-188.62960729409627 245.06749051261957) rotate(340.31258237889904)"><path class="outline" fill="#A5ABB6" stroke="none" d="M 25 0.5 L 30.115298660309833 0.5 L 30.115298660309833 -0.5 L 25 -0.5 Z M 122.65045491030983 0.5 L 127.76575357061967 0.5 L 127.76575357061967 3.5 L 134.76575357061967 0 L 127.76575357061967 -3.5 L 127.76575357061967 -0.5 L 122.65045491030983 -0.5 Z"/><text text-anchor="middle" pointer-events="none" font-size="8px" fill="#000000" x="76.38287678530983" y="3" font-family="sans-serif">FROM_TO_CHEAPEST</text></g><g class="relationship" transform="translate(-146.530537024141 152.25258663313534) rotate(379.7959533035987)"><path class="outline" fill="#A5ABB6" stroke="none" d="M 24.018736134675446,6.953439040707552 L 24.277555179777966,5.987513214418485 A 121.92011983384529 121.92011983384529 0 0 0 25.74509703120121,6.370971669030013 L 25.49831489890212,7.340042656717657 A 122.92011983384529 122.92011983384529 0 0 1 24.018736134675446,6.953439040707552 Z M 82.61368202394647,8.18896809271655 L 82.39580981648207,7.212990787030307 A 121.92011983384529 121.92011983384529 0 0 0 83.87409982856377,6.873317249245643 L 83.18410799556311,3.9537434326771375 L 90.80143737272373,5.749931941672184 L 84.79408893923132,10.766082338003649 L 84.10409710623065,7.846508521435144 A 122.92011983384529 122.92011983384529 0 0 1 82.61368202394647,8.18896809271655"/><text text-anchor="middle" pointer-events="none" font-size="8px" fill="#000000" x="54.01343259025854" y="13.628320328934635" font-family="sans-serif">FROM_TO_…</text></g><g class="relationship" transform="translate(-146.530537024141 152.25258663313534) rotate(193.8940414960132)"><path class="outline" fill="#A5ABB6" stroke="none" d="M 25 0.5 L 40.34539834570562 0.5 L 40.34539834570562 -0.5 L 25 -0.5 Z M 132.88055459570563 0.5 L 148.22595294141124 0.5 L 148.22595294141124 3.5 L 155.22595294141124 0 L 148.22595294141124 -3.5 L 148.22595294141124 -0.5 L 132.88055459570563 -0.5 Z"/><text text-anchor="middle" pointer-events="none" font-size="8px" fill="#000000" x="86.61297647070562" y="3" transform="rotate(180 86.61297647070562 0)" font-family="sans-serif">FROM_TO_CHEAPEST</text></g><g class="relationship" transform="translate(-146.530537024141 152.25258663313534) rotate(334.25373053982366)"><path class="outline" fill="#A5ABB6" stroke="none" d="M 24.018736134675446,6.953439040707552 L 24.277555179777966,5.987513214418485 A 221.83875294917812 221.83875294917812 0 0 0 33.58629203915251,8.267457439464692 L 33.369434719562875,9.243660749713342 A 222.83875294917812 222.83875294917812 0 0 1 24.018736134675446,6.953439040707552 Z M 125.43970749184783,10.2103462200987 L 125.24339487778018,9.229804860666121 A 221.83875294917812 221.83875294917812 0 0 0 134.59795056604264,7.145814586793435 L 133.8825079238816,4.232373009246768 L 141.51522135401171,5.9620220180087555 L 135.55187408892405,11.030403356855658 L 134.83643144676302,8.11696177930899 A 222.83875294917812 222.83875294917812 0 0 1 125.43970749184783,10.2103462200987"/><text text-anchor="middle" pointer-events="none" font-size="8px" fill="#000000" x="79.35934766434912" y="17.034231336081604" font-family="sans-serif">FROM_TO_CHEAPEST</text></g><g class="relationship" transform="translate(-146.530537024141 152.25258663313534) rotate(313.1592679989982)"><path class="outline" fill="#A5ABB6" stroke="none" d="M 24.018736134675446,6.953439040707552 L 24.277555179777966,5.987513214418485 A 198.59349395675252 198.59349395675252 0 0 0 27.76463071273121,6.888063919922246 L 27.52337052851319,7.85852438975661 A 199.59349395675252 199.59349395675252 0 0 1 24.018736134675446,6.953439040707552 Z M 119.45233267730421,8.894881055098324 L 119.2330119060693,7.919228248355637 A 198.59349395675252 198.59349395675252 0 0 0 122.73950325050285,7.0975191775062925 L 122.02857105433262,4.182973687648815 L 129.65859809286533,5.9244349680853166 L 123.6874128453965,10.983579830649596 L 122.97648064922626,8.069034340792118 A 199.59349395675252 199.59349395675252 0 0 1 119.45233267730421,8.894881055098324"/><text text-anchor="middle" pointer-events="none" font-size="8px" fill="#000000" x="73.43300548013526" y="16.24177216527636" font-family="sans-serif">FROM_TO_CHEAPEST</text></g><g class="relationship" transform="translate(-146.530537024141 152.25258663313534) rotate(474.3981377546671)"><path class="outline" fill="#A5ABB6" stroke="none" d="M 25 0.5 L 26.458164458093776 0.5 L 26.458164458093776 -0.5 L 25 -0.5 Z M 68.45816445809378 0.5 L 69.91632891618755 0.5 L 69.91632891618755 3.5 L 76.91632891618755 0 L 69.91632891618755 -3.5 L 69.91632891618755 -0.5 L 68.45816445809378 -0.5 Z"/><text text-anchor="middle" pointer-events="none" font-size="8px" fill="#000000" x="47.458164458093776" y="3" transform="rotate(180 47.458164458093776 0)" font-family="sans-serif">FROM_…</text></g><g class="relationship" transform="translate(-146.530537024141 152.25258663313534) rotate(244.7033222672053)"><path class="outline" fill="#A5ABB6" stroke="none" d="M 25 0.5 L 46.71140732717991 0.5 L 46.71140732717991 -0.5 L 25 -0.5 Z M 139.24656357717993 0.5 L 160.95797090435983 0.5 L 160.95797090435983 3.5 L 167.95797090435983 0 L 160.95797090435983 -3.5 L 160.95797090435983 -0.5 L 139.24656357717993 -0.5 Z"/><text text-anchor="middle" pointer-events="none" font-size="8px" fill="#000000" x="92.97898545217991" y="3" transform="rotate(180 92.97898545217991 0)" font-family="sans-serif">FROM_TO_CHEAPEST</text></g><g class="relationship" transform="translate(-146.530537024141 152.25258663313534) rotate(255.88293561829408)"><path class="outline" fill="#A5ABB6" stroke="none" d="M 25 0.5 L 27.40447454481918 0.5 L 27.40447454481918 -0.5 L 25 -0.5 Z M 46.29119329481918 0.5 L 48.69566783963836 0.5 L 48.69566783963836 3.5 L 55.69566783963836 0 L 48.69566783963836 -3.5 L 48.69566783963836 -0.5 L 46.29119329481918 -0.5 Z"/><text text-anchor="middle" pointer-events="none" font-size="8px" fill="#000000" x="36.84783391981918" y="3" transform="rotate(180 36.84783391981918 0)" font-family="sans-serif">F…</text></g><g class="relationship" transform="translate(-146.530537024141 152.25258663313534) rotate(520.2188136178503)"><path class="outline" fill="#A5ABB6" stroke="none" d="M 24.018736134675446,-6.953439040707552 L 24.277555179777966,-5.987513214418485 A 243.3399498675693 243.3399498675693 0 0 1 39.00581271074935,-9.44703833340634 L 38.80751910562899,-10.427180999638324 A 244.3399498675693 244.3399498675693 0 0 0 24.018736134675446,-6.953439040707552 Z M 130.9725291907796,-11.336967969154557 L 130.7936228736805,-10.353101855446994 A 243.3399498675693 243.3399498675693 0 0 1 145.58730362916702,-7.184996167141864 L 144.8682017921553,-4.272455601243017 L 152.50308192243295,-5.9925153084309954 L 146.54610607851598,-11.068383588340327 L 145.82700424150426,-8.155843022441479 A 244.3399498675693 244.3399498675693 0 0 0 130.9725291907796,-11.336967969154557"/><text text-anchor="middle" pointer-events="none" font-size="8px" fill="#000000" x="84.85167256057105" y="-11.767241649276059" transform="rotate(180 84.85167256057105 -14.767241649276059)" font-family="sans-serif">FROM_TO_CHEAPEST</text></g><g class="relationship" transform="translate(-146.530537024141 152.25258663313534) rotate(221.9452092851443)"><path class="outline" fill="#A5ABB6" stroke="none" d="M 25 0.5 L 41.214775397818016 0.5 L 41.214775397818016 -0.5 L 25 -0.5 Z M 133.74993164781802 0.5 L 149.96470704563603 0.5 L 149.96470704563603 3.5 L 156.96470704563603 0 L 149.96470704563603 -3.5 L 149.96470704563603 -0.5 L 133.74993164781802 -0.5 Z"/><text text-anchor="middle" pointer-events="none" font-size="8px" fill="#000000" x="87.48235352281802" y="3" transform="rotate(180 87.48235352281802 0)" font-family="sans-serif">FROM_TO_CHEAPEST</text></g><g class="relationship" transform="translate(-146.530537024141 152.25258663313534) rotate(448.78159226343513)"><path class="outline" fill="#A5ABB6" stroke="none" d="M 24.018736134675446,-6.953439040707552 L 24.277555179777966,-5.987513214418485 A 156.29859397354042 156.29859397354042 0 0 1 26.06861565461614,-6.456075215698917 L 25.821255832717775,-7.4249989064560395 A 157.29859397354042 157.29859397354042 0 0 0 24.018736134675446,-6.953439040707552 Z M 99.66110451447213,-8.385809559777329 L 99.43903961478541,-7.410777672951497 A 156.29859397354042 156.29859397354042 0 0 1 101.24168556374917,-6.988977298063077 L 100.54089082313135,-4.07197768690054 L 108.1648171132314,-5.839956171815231 L 102.17607855123961,-10.878310112946458 L 101.47528381062179,-7.961310501783922 A 157.29859397354042 157.29859397354042 0 0 0 99.66110451447213,-8.385809559777329"/><text text-anchor="middle" pointer-events="none" font-size="8px" fill="#000000" x="62.69050352787698" y="-8.799986207805858" font-family="sans-serif">FROM_TO_CHE…</text></g><g class="relationship" transform="translate(-146.530537024141 152.25258663313534) rotate(396.9227575291226)"><path class="outline" fill="#A5ABB6" stroke="none" d="M 24.018736134675446,-6.953439040707552 L 24.277555179777966,-5.987513214418485 A 216.85464993055317 216.85464993055317 0 0 1 32.334333849209585,-7.981880155978928 L 32.11266770201362,-8.957002773492889 A 217.85464993055317 217.85464993055317 0 0 0 24.018736134675446,-6.953439040707552 Z M 124.15661282072281,-9.937864114239233 L 123.95577733599103,-8.958239130853997 A 216.85464993055317 216.85464993055317 0 0 1 132.05322726141455,-7.136018855734642 L 131.33869946119754,-4.222352776253839 L 138.9708694135726,-5.95439833514175 L 133.00593099503723,-11.020906961709047 L 132.29140319482022,-8.107240882228243 A 217.85464993055317 217.85464993055317 0 0 0 124.15661282072281,-9.937864114239233"/><text text-anchor="middle" pointer-events="none" font-size="8px" fill="#000000" x="78.08757199153834" y="-10.864315897157638" font-family="sans-serif">FROM_TO_CHEAPEST</text></g><g class="relationship" transform="translate(-10.428190338543924 138.53745266657756) rotate(252.6503748748786)"><path class="outline" fill="#A5ABB6" stroke="none" d="M 25 0.5 L 27.14044554114131 0.5 L 27.14044554114131 -0.5 L 25 -0.5 Z M 69.1404455411413 0.5 L 71.28089108228262 0.5 L 71.28089108228262 3.5 L 78.28089108228262 0 L 71.28089108228262 -3.5 L 71.28089108228262 -0.5 L 69.1404455411413 -0.5 Z"/><text text-anchor="middle" pointer-events="none" font-size="8px" fill="#000000" x="48.14044554114131" y="3" transform="rotate(180 48.14044554114131 0)" font-family="sans-serif">FROM_…</text></g><g class="relationship" transform="translate(-10.428190338543924 138.53745266657756) rotate(534.2456873809997)"><path class="outline" fill="#A5ABB6" stroke="none" d="M 25 0.5 L 25.075509143297566 0.5 L 25.075509143297566 -0.5 L 25 -0.5 Z M 104.71613414329757 0.5 L 104.79164328659513 0.5 L 104.79164328659513 3.5 L 111.79164328659513 0 L 104.79164328659513 -3.5 L 104.79164328659513 -0.5 L 104.71613414329757 -0.5 Z"/><text text-anchor="middle" pointer-events="none" font-size="8px" fill="#000000" x="64.89582164329757" y="3" transform="rotate(180 64.89582164329757 0)" font-family="sans-serif">FROM_TO_CHEA…</text></g><g class="relationship" transform="translate(-166.2125217031038 73.9939750483243) rotate(422.54900967493927)"><path class="outline" fill="#A5ABB6" stroke="none" d="M 24.018736134675446,-6.953439040707552 L 24.277555179777966,-5.987513214418485 A 161.80637525835624 161.80637525835624 0 0 1 24.856609771767467,-6.141521867246382 L 24.601369415026667,-7.108399501846975 A 162.80637525835624 162.80637525835624 0 0 0 24.018736134675446,-6.953439040707552 Z M 103.68189428762014,-8.117195636727757 L 103.45140105593664,-7.144121708319375 A 161.80637525835624 161.80637525835624 0 0 1 104.0341958240004,-7.004934266473845 L 103.33191071846224,-4.088293110873925 L 110.95673937132325,-5.852375879484766 L 104.97057596471797,-10.893789140607073 L 104.2682908591798,-7.977147985007153 A 162.80637525835624 162.80637525835624 0 0 0 103.68189428762014,-8.117195636727757"/><text text-anchor="middle" pointer-events="none" font-size="8px" fill="#000000" x="64.08582276036978" y="-8.98772730253512" font-family="sans-serif">FROM_TO_CHEA…</text></g><g class="relationship" transform="translate(-166.2125217031038 73.9939750483243) rotate(402.48812110151437)"><path class="outline" fill="#A5ABB6" stroke="none" d="M 24.018736134675446,-6.953439040707552 L 24.277555179777966,-5.987513214418485 A 237.11165663827504 237.11165663827504 0 0 1 37.4331043076744,-9.113375378195002 L 37.229767769481974,-10.09248428543458 A 238.11165663827504 238.11165663827504 0 0 0 24.018736134675446,-6.953439040707552 Z M 129.37011935885343,-11.01807819883652 L 129.1864931045046,-10.035082065215533 A 237.11165663827504 237.11165663827504 0 0 1 142.4021826293611,-7.174131610205221 L 141.68409543322164,-4.261340718510359 L 149.31837590933904,-5.98405996782893 L 143.35963222421375,-11.057852799131703 L 142.6415450280743,-8.145061907436842 A 238.11165663827504 238.11165663827504 0 0 0 129.37011935885343,-11.01807819883652"/><text text-anchor="middle" pointer-events="none" font-size="8px" fill="#000000" x="83.25976538975897" y="-11.554909008304492" font-family="sans-serif">FROM_TO_CHEAPEST</text></g><g class="relationship" transform="translate(-166.2125217031038 73.9939750483243) rotate(344.765621985183)"><path class="outline" fill="#A5ABB6" stroke="none" d="M 24.018736134675446,-6.953439040707552 L 24.277555179777966,-5.987513214418485 A 150.49625439234828 150.49625439234828 0 0 1 24.635241601649945,-6.082883664412634 L 24.378799269664412,-7.049443197170888 A 151.49625439234828 151.49625439234828 0 0 0 24.018736134675446,-6.953439040707552 Z M 98.17307675821777,-8.030339558502533 L 97.94241610680254,-7.057305302225444 A 150.49625439234828 150.49625439234828 0 0 1 98.30251109415671,-6.971475824736262 L 97.60335098809307,-4.0540839850806645 L 105.22628540436371,-5.826334217197026 L 99.23472456890823,-10.861331610943726 L 98.53556446284459,-7.943939771288128 A 151.49625439234828 151.49625439234828 0 0 0 98.17307675821777,-8.030339558502533"/><text text-anchor="middle" pointer-events="none" font-size="8px" fill="#000000" x="61.221940404049946" y="-8.602211073483602" font-family="sans-serif">FROM_TO_CHE…</text></g><g class="relationship" transform="translate(-244.5696967933187 181.33229410789806) rotate(306.12951454520703)"><path class="outline" fill="#A5ABB6" stroke="none" d="M 25 0.5 L 25.795684111354646 0.5 L 25.795684111354646 -0.5 L 25 -0.5 Z M 100.10037161135465 0.5 L 100.89605572270929 0.5 L 100.89605572270929 3.5 L 107.89605572270929 0 L 100.89605572270929 -3.5 L 100.89605572270929 -0.5 L 100.10037161135465 -0.5 Z"/><text text-anchor="middle" pointer-events="none" font-size="8px" fill="#000000" x="62.948027861354646" y="3" font-family="sans-serif">FROM_TO_CHE…</text></g><g class="relationship" transform="translate(21.384673196478342 188.5719365768998) rotate(229.87315540387243)"><path class="outline" fill="#A5ABB6" stroke="none" d="M 25 0.5 L 26.88570636452497 0.5 L 26.88570636452497 -0.5 L 25 -0.5 Z M 84.29976886452496 0.5 L 86.18547522904994 0.5 L 86.18547522904994 3.5 L 93.18547522904994 0 L 86.18547522904994 -3.5 L 86.18547522904994 -0.5 L 84.29976886452496 -0.5 Z"/><text text-anchor="middle" pointer-events="none" font-size="8px" fill="#000000" x="55.59273761452497" y="3" transform="rotate(180 55.59273761452497 0)" font-family="sans-serif">FROM_TO_…</text></g><g class="relationship" transform="translate(21.384673196478342 188.5719365768998) rotate(416.0249885362011)"><path class="outline" fill="#A5ABB6" stroke="none" d="M 25 0.5 L 26.644468761390705 0.5 L 26.644468761390705 -0.5 L 25 -0.5 Z M 79.6093125113907 0.5 L 81.25378127278141 0.5 L 81.25378127278141 3.5 L 88.25378127278141 0 L 81.25378127278141 -3.5 L 81.25378127278141 -0.5 L 79.6093125113907 -0.5 Z"/><text text-anchor="middle" pointer-events="none" font-size="8px" fill="#000000" x="53.126890636390705" y="3" font-family="sans-serif">FROM_TO…</text></g><g class="relationship" transform="translate(21.384673196478342 188.5719365768998) rotate(192.20482326316238)"><path class="outline" fill="#A5ABB6" stroke="none" d="M 25 0.5 L 36.1315094775066 0.5 L 36.1315094775066 -0.5 L 25 -0.5 Z M 128.6666657275066 0.5 L 139.7981752050132 0.5 L 139.7981752050132 3.5 L 146.7981752050132 0 L 139.7981752050132 -3.5 L 139.7981752050132 -0.5 L 128.6666657275066 -0.5 Z"/><text text-anchor="middle" pointer-events="none" font-size="8px" fill="#000000" x="82.3990876025066" y="3" transform="rotate(180 82.3990876025066 0)" font-family="sans-serif">FROM_TO_CHEAPEST</text></g><g class="relationship" transform="translate(21.384673196478342 188.5719365768998) rotate(320.7563113109778)"><path class="outline" fill="#A5ABB6" stroke="none" d="M 24.018736134675446,6.953439040707552 L 24.277555179777966,5.987513214418485 A 111.07951693212267 111.07951693212267 0 0 0 25.233792791014956,6.239180037976865 L 24.983582332244524,7.2073715099088815 A 112.07951693212267 112.07951693212267 0 0 1 24.018736134675446,6.953439040707552 Z M 77.68130763995472,8.02722314094278 L 77.46133651024076,7.051716758548295 A 111.07951693212267 111.07951693212267 0 0 0 78.4249401213592,6.829918111429878 L 77.73900203465651,3.9093892310366973 L 85.35383052339374,5.716150722522453 L 79.33952423696279,10.723956618620786 L 78.6535861502601,7.8034277382276045 A 112.07951693212267 112.07951693212267 0 0 1 77.68130763995472,8.02722314094278"/><text text-anchor="middle" pointer-events="none" font-size="8px" fill="#000000" x="51.29134705625539" y="13.258955078689851" font-family="sans-serif">FROM_TO…</text></g><g class="relationship" transform="translate(21.384673196478342 188.5719365768998) rotate(537.4321968552335)"><path class="outline" fill="#A5ABB6" stroke="none" d="M 24.018736134675446,6.953439040707552 L 24.277555179777966,5.987513214418485 A 8.506327172613114 8.506327172613114 0 0 0 26.247176367159355,6.274195525285345 L 26.21990510377428,7.273823595216047 A 9.506327172613114 9.506327172613114 0 0 1 24.018736134675446,6.953439040707552 Z M 26.21990510377428,7.273823595216047 L 26.247176367159355,6.274195525285345 A 8.506327172613114 8.506327172613114 0 0 0 28.229498416061052,6.095327798783863 L 27.612189538344783,3.159526417645712 L 35.18258645166945,5.14424064763559 L 29.052576919682746,10.0097296403014 L 28.435268041966477,7.073928259163248 A 9.506327172613114 9.506327172613114 0 0 1 26.21990510377428,7.273823595216047"/><text text-anchor="middle" pointer-events="none" font-size="8px" fill="#000000" x="26.233540735466818" y="9.774009560250695" transform="rotate(180 26.233540735466818 6.774009560250695)" font-family="sans-serif"/></g><g class="relationship" transform="translate(21.384673196478342 188.5719365768998) rotate(247.15453226105075)"><path class="outline" fill="#A5ABB6" stroke="none" d="M 24.018736134675446,6.953439040707552 L 24.277555179777966,5.987513214418485 A 212.96278724871695 212.96278724871695 0 0 0 31.358041445896497,7.75527159000913 L 31.132469928954137,8.729498201606418 A 213.96278724871695 213.96278724871695 0 0 1 24.018736134675446,6.953439040707552 Z M 123.15448794423361,9.721707585315812 L 122.94997524326797,8.74284367488508 A 212.96278724871695 212.96278724871695 0 0 0 130.06693195871725,7.128166447206827 L 129.3531375132819,4.214320622585072 L 136.98487129040723,5.948287045294627 L 131.01865788596436,11.013294213369168 L 130.304863440529,8.099448388747412 A 213.96278724871695 213.96278724871695 0 0 1 123.15448794423361,9.721707585315812"/><text text-anchor="middle" pointer-events="none" font-size="8px" fill="#000000" x="77.09489350740301" y="16.731636915802312" transform="rotate(180 77.09489350740301 13.731636915802312)" font-family="sans-serif">FROM_TO_CHEAPEST</text></g><g class="relationship" transform="translate(21.384673196478342 188.5719365768998) rotate(537.5063312582903)"><path class="outline" fill="#A5ABB6" stroke="none" d="M 25 0.5 L 27.585036510034406 0.5 L 27.585036510034406 -0.5 L 25 -0.5 Z M 90.7764427600344 0.5 L 93.36147927006881 0.5 L 93.36147927006881 3.5 L 100.36147927006881 0 L 93.36147927006881 -3.5 L 93.36147927006881 -0.5 L 90.7764427600344 -0.5 Z"/><text text-anchor="middle" pointer-events="none" font-size="8px" fill="#000000" x="59.180739635034406" y="3" transform="rotate(180 59.180739635034406 0)" font-family="sans-serif">FROM_TO_C…</text></g><g class="relationship" transform="translate(-103.85809320073855 194.02628804632775) rotate(423.22724207277224)"><path class="outline" fill="#A5ABB6" stroke="none" d="M 25 0.5 L 27.145514801198487 0.5 L 27.145514801198487 -0.5 L 25 -0.5 Z M 106.78613980119849 0.5 L 108.93165460239697 0.5 L 108.93165460239697 3.5 L 115.93165460239697 0 L 108.93165460239697 -3.5 L 108.93165460239697 -0.5 L 106.78613980119849 -0.5 Z"/><text text-anchor="middle" pointer-events="none" font-size="8px" fill="#000000" x="66.96582730119849" y="3" font-family="sans-serif">FROM_TO_CHEA…</text></g><g class="relationship" transform="translate(-103.85809320073855 194.02628804632775) rotate(242.54900967493927)"><path class="outline" fill="#A5ABB6" stroke="none" d="M 24.018736134675446,-6.953439040707552 L 24.277555179777966,-5.987513214418485 A 161.80637525835624 161.80637525835624 0 0 1 24.856609771767467,-6.141521867246382 L 24.601369415026667,-7.108399501846975 A 162.80637525835624 162.80637525835624 0 0 0 24.018736134675446,-6.953439040707552 Z M 103.68189428762014,-8.117195636727757 L 103.45140105593664,-7.144121708319375 A 161.80637525835624 161.80637525835624 0 0 1 104.0341958240004,-7.004934266473845 L 103.33191071846224,-4.088293110873925 L 110.95673937132325,-5.852375879484766 L 104.97057596471797,-10.893789140607073 L 104.2682908591798,-7.977147985007153 A 162.80637525835624 162.80637525835624 0 0 0 103.68189428762014,-8.117195636727757"/><text text-anchor="middle" pointer-events="none" font-size="8px" fill="#000000" x="64.08582276036978" y="-8.98772730253512" transform="rotate(180 64.08582276036978 -11.98772730253512)" font-family="sans-serif">FROM_TO_CHEA…</text></g><g class="relationship" transform="translate(-103.85809320073855 194.02628804632775) rotate(310.18799168623775)"><path class="outline" fill="#A5ABB6" stroke="none" d="M 25 0.5 L 82.87814581303272 0.5 L 82.87814581303272 -0.5 L 25 -0.5 Z M 175.41330206303272 0.5 L 233.29144787606543 0.5 L 233.29144787606543 3.5 L 240.29144787606543 0 L 233.29144787606543 -3.5 L 233.29144787606543 -0.5 L 175.41330206303272 -0.5 Z"/><text text-anchor="middle" pointer-events="none" font-size="8px" fill="#000000" x="129.14572393803272" y="3" font-family="sans-serif">FROM_TO_CHEAPEST</text></g><g class="relationship" transform="translate(-103.85809320073855 194.02628804632775) rotate(491.91847403919024)"><path class="outline" fill="#A5ABB6" stroke="none" d="M 25 0.5 L 41.62745412512281 0.5 L 41.62745412512281 -0.5 L 25 -0.5 Z M 134.16261037512282 0.5 L 150.79006450024562 0.5 L 150.79006450024562 3.5 L 157.79006450024562 0 L 150.79006450024562 -3.5 L 150.79006450024562 -0.5 L 134.16261037512282 -0.5 Z"/><text text-anchor="middle" pointer-events="none" font-size="8px" fill="#000000" x="87.89503225012281" y="3" transform="rotate(180 87.89503225012281 0)" font-family="sans-serif">FROM_TO_CHEAPEST</text></g><g class="relationship" transform="translate(-103.85809320073855 194.02628804632775) rotate(473.7288475641641)"><path class="outline" fill="#A5ABB6" stroke="none" d="M 25 0.5 L 25.021270140617688 0.5 L 25.021270140617688 -0.5 L 25 -0.5 Z M 67.02127014061769 0.5 L 67.04254028123538 0.5 L 67.04254028123538 3.5 L 74.04254028123538 0 L 67.04254028123538 -3.5 L 67.04254028123538 -0.5 L 67.02127014061769 -0.5 Z"/><text text-anchor="middle" pointer-events="none" font-size="8px" fill="#000000" x="46.02127014061769" y="3" transform="rotate(180 46.02127014061769 0)" font-family="sans-serif">FROM_…</text></g><g class="relationship" transform="translate(-103.85809320073855 194.02628804632775) rotate(334.16412995341966)"><path class="outline" fill="#A5ABB6" stroke="none" d="M 25 0.5 L 33.871686960086905 0.5 L 33.871686960086905 -0.5 L 25 -0.5 Z M 126.4068432100869 0.5 L 135.2785301701738 0.5 L 135.2785301701738 3.5 L 142.2785301701738 0 L 135.2785301701738 -3.5 L 135.2785301701738 -0.5 L 126.4068432100869 -0.5 Z"/><text text-anchor="middle" pointer-events="none" font-size="8px" fill="#000000" x="80.1392650850869" y="3" font-family="sans-serif">FROM_TO_CHEAPEST</text></g><g class="relationship" transform="translate(-103.85809320073855 194.02628804632775) rotate(357.57362194868676)"><path class="outline" fill="#A5ABB6" stroke="none" d="M 24.018736134675446,-6.953439040707552 L 24.277555179777966,-5.987513214418485 A 21.41862956686527 21.41862956686527 0 0 1 29.285851155596745,-6.710646263214965 L 29.260861075143143,-7.710333962388521 A 22.41862956686527 22.41862956686527 0 0 0 24.018736134675446,-6.953439040707552 Z M 29.260861075143143,-7.710333962388521 L 29.285851155596745,-6.710646263214965 A 21.41862956686527 21.41862956686527 0 0 1 34.324022747326666,-6.238653678580563 L 33.69332156708673,-3.305700214707679 L 41.27269769307005,-5.255843168666179 L 35.164957654313255,-10.14925829707774 L 34.53425647407332,-7.216304833204856 A 22.41862956686527 22.41862956686527 0 0 0 29.260861075143143,-7.710333962388521"/><text text-anchor="middle" pointer-events="none" font-size="8px" fill="#000000" x="29.273356115369943" y="-4.210490112801743" font-family="sans-serif"/></g><g class="relationship" transform="translate(-103.85809320073855 194.02628804632775) rotate(292.1222553620619)"><path class="outline" fill="#A5ABB6" stroke="none" d="M 24.018736134675446,-6.953439040707552 L 24.277555179777966,-5.987513214418485 A 222.85884260915344 222.85884260915344 0 0 1 33.84274896381159,-8.325292801865999 L 33.62685033268971,-9.301708584757534 A 223.85884260915344 223.85884260915344 0 0 0 24.018736134675446,-6.953439040707552 Z M 125.702283402176,-10.26554087913155 L 125.50687179870397,-9.284819560290913 A 222.85884260915344 222.85884260915344 0 0 1 135.11890729492734,-7.147784430737798 L 134.4032806858684,-4.234388035393213 L 142.03610331890783,-5.963555075491062 L 136.0730761070059,-11.032312957863912 L 135.35744949794696,-8.118916562519326 A 223.85884260915344 223.85884260915344 0 0 0 125.702283402176,-10.26554087913155"/><text text-anchor="middle" pointer-events="none" font-size="8px" fill="#000000" x="79.61970809879497" y="-11.069007752835148" font-family="sans-serif">FROM_TO_CHEAPEST</text></g><g class="relationship" transform="translate(-103.85809320073855 194.02628804632775) rotate(205.88391769574082)"><path class="outline" fill="#A5ABB6" stroke="none" d="M 25 0.5 L 32.80435389501497 0.5 L 32.80435389501497 -0.5 L 25 -0.5 Z M 125.33951014501497 0.5 L 133.14386404002994 0.5 L 133.14386404002994 3.5 L 140.14386404002994 0 L 133.14386404002994 -3.5 L 133.14386404002994 -0.5 L 125.33951014501497 -0.5 Z"/><text text-anchor="middle" pointer-events="none" font-size="8px" fill="#000000" x="79.07193202001497" y="3" transform="rotate(180 79.07193202001497 0)" font-family="sans-serif">FROM_TO_CHEAPEST</text></g><g class="relationship" transform="translate(-103.85809320073855 194.02628804632775) rotate(465.3159027202904)"><path class="outline" fill="#A5ABB6" stroke="none" d="M 25 0.5 L 43.5089350394896 0.5 L 43.5089350394896 -0.5 L 25 -0.5 Z M 136.0440912894896 0.5 L 154.5530263289792 0.5 L 154.5530263289792 3.5 L 161.5530263289792 0 L 154.5530263289792 -3.5 L 154.5530263289792 -0.5 L 136.0440912894896 -0.5 Z"/><text text-anchor="middle" pointer-events="none" font-size="8px" fill="#000000" x="89.7765131644896" y="3" transform="rotate(180 89.7765131644896 0)" font-family="sans-serif">FROM_TO_CHEAPEST</text></g><g class="relationship" transform="translate(-103.85809320073855 194.02628804632775) rotate(329.29355366031757)"><path class="outline" fill="#A5ABB6" stroke="none" d="M 25 0.5 L 27.389314037598005 0.5 L 27.389314037598005 -0.5 L 25 -0.5 Z M 74.27603278759801 0.5 L 76.66534682519601 0.5 L 76.66534682519601 3.5 L 83.66534682519601 0 L 76.66534682519601 -3.5 L 76.66534682519601 -0.5 L 74.27603278759801 -0.5 Z"/><text text-anchor="middle" pointer-events="none" font-size="8px" fill="#000000" x="50.832673412598005" y="3" font-family="sans-serif">FROM_T…</text></g><g class="relationship" transform="translate(-103.85809320073855 194.02628804632775) rotate(297.1190166546232)"><path class="outline" fill="#A5ABB6" stroke="none" d="M 25 0.5 L 26.88509372720577 0.5 L 26.88509372720577 -0.5 L 25 -0.5 Z M 73.77181247720577 0.5 L 75.65690620441154 0.5 L 75.65690620441154 3.5 L 82.65690620441154 0 L 75.65690620441154 -3.5 L 75.65690620441154 -0.5 L 73.77181247720577 -0.5 Z"/><text text-anchor="middle" pointer-events="none" font-size="8px" fill="#000000" x="50.32845310220577" y="3" font-family="sans-serif">FROM_T…</text></g><g class="relationship" transform="translate(-103.85809320073855 194.02628804632775) rotate(185.1548614022098)"><path class="outline" fill="#A5ABB6" stroke="none" d="M 25 0.5 L 27.321199494903368 0.5 L 27.321199494903368 -0.5 L 25 -0.5 Z M 106.96182449490337 0.5 L 109.28302398980674 0.5 L 109.28302398980674 3.5 L 116.28302398980674 0 L 109.28302398980674 -3.5 L 109.28302398980674 -0.5 L 106.96182449490337 -0.5 Z"/><text text-anchor="middle" pointer-events="none" font-size="8px" fill="#000000" x="67.14151199490337" y="3" transform="rotate(180 67.14151199490337 0)" font-family="sans-serif">FROM_TO_CHEA…</text></g><g class="relationship" transform="translate(-84.59912193131858 274.4196075278879) rotate(243.1177020682146)"><path class="outline" fill="#A5ABB6" stroke="none" d="M 25 0.5 L 25.163775377583605 0.5 L 25.163775377583605 -0.5 L 25 -0.5 Z M 104.8044003775836 0.5 L 104.96817575516721 0.5 L 104.96817575516721 3.5 L 111.96817575516721 0 L 104.96817575516721 -3.5 L 104.96817575516721 -0.5 L 104.8044003775836 -0.5 Z"/><text text-anchor="middle" pointer-events="none" font-size="8px" fill="#000000" x="64.9840878775836" y="3" transform="rotate(180 64.9840878775836 0)" font-family="sans-serif">FROM_TO_CHEA…</text></g><g class="relationship" transform="translate(-84.59912193131858 274.4196075278879) rotate(320.99226731367435)"><path class="outline" fill="#A5ABB6" stroke="none" d="M 25 0.5 L 27.54294097959101 0.5 L 27.54294097959101 -0.5 L 25 -0.5 Z M 101.84762847959101 0.5 L 104.39056945918202 0.5 L 104.39056945918202 3.5 L 111.39056945918202 0 L 104.39056945918202 -3.5 L 104.39056945918202 -0.5 L 101.84762847959101 -0.5 Z"/><text text-anchor="middle" pointer-events="none" font-size="8px" fill="#000000" x="64.69528472959101" y="3" font-family="sans-serif">FROM_TO_CHE…</text></g><g class="relationship" transform="translate(-143.71367783889025 284.6957821361883) rotate(268.78159226343513)"><path class="outline" fill="#A5ABB6" stroke="none" d="M 24.018736134675446,-6.953439040707552 L 24.277555179777966,-5.987513214418485 A 156.29859397354042 156.29859397354042 0 0 1 26.06861565461614,-6.456075215698917 L 25.821255832717775,-7.4249989064560395 A 157.29859397354042 157.29859397354042 0 0 0 24.018736134675446,-6.953439040707552 Z M 99.66110451447213,-8.385809559777329 L 99.43903961478541,-7.410777672951497 A 156.29859397354042 156.29859397354042 0 0 1 101.24168556374917,-6.988977298063077 L 100.54089082313135,-4.07197768690054 L 108.1648171132314,-5.839956171815231 L 102.17607855123961,-10.878310112946458 L 101.47528381062179,-7.961310501783922 A 157.29859397354042 157.29859397354042 0 0 0 99.66110451447213,-8.385809559777329"/><text text-anchor="middle" pointer-events="none" font-size="8px" fill="#000000" x="62.69050352787698" y="-8.799986207805858" transform="rotate(180 62.69050352787698 -11.799986207805858)" font-family="sans-serif">FROM_TO_CHE…</text></g><g class="relationship" transform="translate(-143.71367783889025 284.6957821361883) rotate(318.46845717160903)"><path class="outline" fill="#A5ABB6" stroke="none" d="M 24.018736134675446,6.953439040707552 L 24.277555179777966,5.987513214418485 A 173.0160470511982 173.0160470511982 0 0 0 25.058111161849887,6.194711278731688 L 24.803803582564413,7.1618346706098635 A 174.0160470511982 174.0160470511982 0 0 1 24.018736134675446,6.953439040707552 Z M 109.16979506023122,8.196643492638515 L 108.93928533153104,7.223573472046695 A 173.0160470511982 173.0160470511982 0 0 0 109.72468858163167,7.0355830102283985 L 109.01954094920514,4.1196325963010185 L 116.64609748619998,5.876230270221061 L 110.66488542486705,10.923516895464905 L 109.95973779244052,8.007566481537525 A 174.0160470511982 174.0160470511982 0 0 1 109.16979506023122,8.196643492638515"/><text text-anchor="middle" pointer-events="none" font-size="8px" fill="#000000" x="66.92926575664757" y="15.369840988055358" font-family="sans-serif">FROM_TO_CHEAP…</text></g><g class="relationship" transform="translate(-54.783731757553134 98.20501429958057) rotate(192.25858185843242)"><path class="outline" fill="#A5ABB6" stroke="none" d="M 25 0.5 L 27.03193958409976 0.5 L 27.03193958409976 -0.5 L 25 -0.5 Z M 79.99678333409976 0.5 L 82.02872291819952 0.5 L 82.02872291819952 3.5 L 89.02872291819952 0 L 82.02872291819952 -3.5 L 82.02872291819952 -0.5 L 79.99678333409976 -0.5 Z"/><text text-anchor="middle" pointer-events="none" font-size="8px" fill="#000000" x="53.51436145909976" y="3" transform="rotate(180 53.51436145909976 0)" font-family="sans-serif">FROM_TO…</text></g><g class="relationship" transform="translate(-54.783731757553134 98.20501429958057) rotate(439.89529201952445)"><path class="outline" fill="#A5ABB6" stroke="none" d="M 25 0.5 L 28.309201717100436 0.5 L 28.309201717100436 -0.5 L 25 -0.5 Z M 59.195920467100436 0.5 L 62.50512218420087 0.5 L 62.50512218420087 3.5 L 69.50512218420087 0 L 62.50512218420087 -3.5 L 62.50512218420087 -0.5 L 59.195920467100436 -0.5 Z"/><text text-anchor="middle" pointer-events="none" font-size="8px" fill="#000000" x="43.752561092100436" y="3" font-family="sans-serif">FRO…</text></g><g class="relationship" transform="translate(-54.783731757553134 98.20501429958057) rotate(509.49787943573983)"><path class="outline" fill="#A5ABB6" stroke="none" d="M 25 0.5 L 26.298110251072565 0.5 L 26.298110251072565 -0.5 L 25 -0.5 Z M 73.18482900107256 0.5 L 74.48293925214513 0.5 L 74.48293925214513 3.5 L 81.48293925214513 0 L 74.48293925214513 -3.5 L 74.48293925214513 -0.5 L 73.18482900107256 -0.5 Z"/><text text-anchor="middle" pointer-events="none" font-size="8px" fill="#000000" x="49.741469626072565" y="3" transform="rotate(180 49.741469626072565 0)" font-family="sans-serif">FROM_T…</text></g><g class="relationship" transform="translate(73.82577415783976 351.2734833331381) rotate(524.4536427731998)"><path class="outline" fill="#A5ABB6" stroke="none" d="M 25 0.5 L 25.516963230379105 0.5 L 25.516963230379105 -0.5 L 25 -0.5 Z M 99.8216507303791 0.5 L 100.33861396075821 0.5 L 100.33861396075821 3.5 L 107.33861396075821 0 L 100.33861396075821 -3.5 L 100.33861396075821 -0.5 L 99.8216507303791 -0.5 Z"/><text text-anchor="middle" pointer-events="none" font-size="8px" fill="#000000" x="62.669306980379105" y="3" transform="rotate(180 62.669306980379105 0)" font-family="sans-serif">FROM_TO_CHE…</text></g><g class="relationship" transform="translate(17.388572263056936 371.1618847473758) rotate(252.8297072288034)"><path class="outline" fill="#A5ABB6" stroke="none" d="M 24.018736134675446,6.953439040707552 L 24.277555179777966,5.987513214418485 A 265.8930779175987 265.8930779175987 0 0 0 44.71658866631104,10.609271376216668 L 44.53463899158328,11.592579220112157 A 266.8930779175987 266.8930779175987 0 0 1 24.018736134675446,6.953439040707552 Z M 136.77410290139335,12.449255036583622 L 136.61044801930944,11.462737383639649 A 265.8930779175987 265.8930779175987 0 0 0 157.1317976821606,7.221399577621005 L 156.40929617353285,4.309700491171542 L 164.04617913531396,6.020845905231186 L 158.09513302699756,11.10366502622029 L 157.37263151836981,8.191965939770826 A 266.8930779175987 266.8930779175987 0 0 1 136.77410290139335,12.449255036583622"/><text text-anchor="middle" pointer-events="none" font-size="8px" fill="#000000" x="90.62172350928343" y="18.536111613715605" transform="rotate(180 90.62172350928343 15.536111613715605)" font-family="sans-serif">FROM_TO_CHEAPEST</text></g><g class="relationship" transform="translate(-38.20303281388296 191.24424549583514) rotate(229.77636860910678)"><path class="outline" fill="#A5ABB6" stroke="none" d="M 25 0.5 L 26.04651491566046 0.5 L 26.04651491566046 -0.5 L 25 -0.5 Z M 83.46057741566045 0.5 L 84.50709233132092 0.5 L 84.50709233132092 3.5 L 91.50709233132092 0 L 84.50709233132092 -3.5 L 84.50709233132092 -0.5 L 83.46057741566045 -0.5 Z"/><text text-anchor="middle" pointer-events="none" font-size="8px" fill="#000000" x="54.75354616566046" y="3" transform="rotate(180 54.75354616566046 0)" font-family="sans-serif">FROM_TO_…</text></g><g class="relationship" transform="translate(-38.20303281388296 191.24424549583514) rotate(268.85502421181775)"><path class="outline" fill="#A5ABB6" stroke="none" d="M 24.018736134675446,-6.953439040707552 L 24.277555179777966,-5.987513214418485 A 193.43048789917393 193.43048789917393 0 0 1 26.478367366032614,-6.563369782796229 L 26.230926114628268,-7.532272681493225 A 194.43048789917393 194.43048789917393 0 0 0 24.018736134675446,-6.953439040707552 Z M 118.1210208482846,-8.585409893267922 L 117.89585054721829,-7.611090471559777 A 193.43048789917393 193.43048789917393 0 0 1 120.10928251344548,-7.085824826962368 L 119.39944250333686,-4.171013141784578 L 127.02881644721175,-5.915333417571875 L 121.05573586025697,-10.972240407199422 L 120.34589585014835,-8.057428722021632 A 194.43048789917393 194.43048789917393 0 0 0 118.1210208482846,-8.585409893267922"/><text text-anchor="middle" pointer-events="none" font-size="8px" fill="#000000" x="72.11858998875778" y="-10.06576205826579" transform="rotate(180 72.11858998875778 -13.06576205826579)" font-family="sans-serif">FROM_TO_CHEAPEST</text></g><g class="relationship" transform="translate(-38.20303281388296 191.24424549583514) rotate(415.00597570908906)"><path class="outline" fill="#A5ABB6" stroke="none" d="M 25 0.5 L 47.90510300219081 0.5 L 47.90510300219081 -0.5 L 25 -0.5 Z M 140.4402592521908 0.5 L 163.34536225438163 0.5 L 163.34536225438163 3.5 L 170.34536225438163 0 L 163.34536225438163 -3.5 L 163.34536225438163 -0.5 L 140.4402592521908 -0.5 Z"/><text text-anchor="middle" pointer-events="none" font-size="8px" fill="#000000" x="94.17268112719081" y="3" font-family="sans-serif">FROM_TO_CHEAPEST</text></g><g class="relationship" transform="translate(-38.20303281388296 191.24424549583514) rotate(369.53051883440764)"><path class="outline" fill="#A5ABB6" stroke="none" d="M 25 0.5 L 64.76852623571217 0.5 L 64.76852623571217 -0.5 L 25 -0.5 Z M 157.30368248571216 0.5 L 197.07220872142435 0.5 L 197.07220872142435 3.5 L 204.07220872142435 0 L 197.07220872142435 -3.5 L 197.07220872142435 -0.5 L 157.30368248571216 -0.5 Z"/><text text-anchor="middle" pointer-events="none" font-size="8px" fill="#000000" x="111.03610436071217" y="3" font-family="sans-serif">FROM_TO_CHEAPEST</text></g><g class="relationship" transform="translate(-38.20303281388296 191.24424549583514) rotate(222.48812110151437)"><path class="outline" fill="#A5ABB6" stroke="none" d="M 24.018736134675446,-6.953439040707552 L 24.277555179777966,-5.987513214418485 A 237.11165663827504 237.11165663827504 0 0 1 37.4331043076744,-9.113375378195002 L 37.229767769481974,-10.09248428543458 A 238.11165663827504 238.11165663827504 0 0 0 24.018736134675446,-6.953439040707552 Z M 129.37011935885343,-11.01807819883652 L 129.1864931045046,-10.035082065215533 A 237.11165663827504 237.11165663827504 0 0 1 142.4021826293611,-7.174131610205221 L 141.68409543322164,-4.261340718510359 L 149.31837590933904,-5.98405996782893 L 143.35963222421375,-11.057852799131703 L 142.6415450280743,-8.145061907436842 A 238.11165663827504 238.11165663827504 0 0 0 129.37011935885343,-11.01807819883652"/><text text-anchor="middle" pointer-events="none" font-size="8px" fill="#000000" x="83.25976538975897" y="-11.554909008304492" transform="rotate(180 83.25976538975897 -14.554909008304492)" font-family="sans-serif">FROM_TO_CHEAPEST</text></g><g class="relationship" transform="translate(-38.20303281388296 191.24424549583514) rotate(314.9228893610184)"><path class="outline" fill="#A5ABB6" stroke="none" d="M 25 0.5 L 59.15922374307797 0.5 L 59.15922374307797 -0.5 L 25 -0.5 Z M 151.69437999307797 0.5 L 185.85360373615595 0.5 L 185.85360373615595 3.5 L 192.85360373615595 0 L 185.85360373615595 -3.5 L 185.85360373615595 -0.5 L 151.69437999307797 -0.5 Z"/><text text-anchor="middle" pointer-events="none" font-size="8px" fill="#000000" x="105.42680186807797" y="3" font-family="sans-serif">FROM_TO_CHEAPEST</text></g><g class="relationship" transform="translate(-38.20303281388296 191.24424549583514) rotate(357.43219685523354)"><path class="outline" fill="#A5ABB6" stroke="none" d="M 24.018736134675446,6.953439040707552 L 24.277555179777966,5.987513214418485 A 8.506327172613114 8.506327172613114 0 0 0 26.247176367159355,6.274195525285345 L 26.21990510377428,7.273823595216047 A 9.506327172613114 9.506327172613114 0 0 1 24.018736134675446,6.953439040707552 Z M 26.21990510377428,7.273823595216047 L 26.247176367159355,6.274195525285345 A 8.506327172613114 8.506327172613114 0 0 0 28.229498416061052,6.095327798783863 L 27.612189538344783,3.159526417645712 L 35.18258645166945,5.14424064763559 L 29.052576919682746,10.0097296403014 L 28.435268041966477,7.073928259163248 A 9.506327172613114 9.506327172613114 0 0 1 26.21990510377428,7.273823595216047"/><text text-anchor="middle" pointer-events="none" font-size="8px" fill="#000000" x="26.233540735466818" y="9.774009560250695" font-family="sans-serif"/></g><g class="relationship" transform="translate(-38.20303281388296 191.24424549583514) rotate(479.15323635394674)"><path class="outline" fill="#A5ABB6" stroke="none" d="M 25 0.5 L 25.344820248525295 0.5 L 25.344820248525295 -0.5 L 25 -0.5 Z M 62.895601498525295 0.5 L 63.24042174705059 0.5 L 63.24042174705059 3.5 L 70.24042174705059 0 L 63.24042174705059 -3.5 L 63.24042174705059 -0.5 L 62.895601498525295 -0.5 Z"/><text text-anchor="middle" pointer-events="none" font-size="8px" fill="#000000" x="44.120210873525295" y="3" transform="rotate(180 44.120210873525295 0)" font-family="sans-serif">FROM…</text></g><g class="relationship" transform="translate(-38.20303281388296 191.24424549583514) rotate(251.58183391980583)"><path class="outline" fill="#A5ABB6" stroke="none" d="M 25 0.5 L 42.35914586159009 0.5 L 42.35914586159009 -0.5 L 25 -0.5 Z M 134.8943021115901 0.5 L 152.2534479731802 0.5 L 152.2534479731802 3.5 L 159.2534479731802 0 L 152.2534479731802 -3.5 L 152.2534479731802 -0.5 L 134.8943021115901 -0.5 Z"/><text text-anchor="middle" pointer-events="none" font-size="8px" fill="#000000" x="88.6267239865901" y="3" transform="rotate(180 88.6267239865901 0)" font-family="sans-serif">FROM_TO_CHEAPEST</text></g><g class="relationship" transform="translate(-38.20303281388296 191.24424549583514) rotate(283.0179474742131)"><path class="outline" fill="#A5ABB6" stroke="none" d="M 25 0.5 L 51.58791826775453 0.5 L 51.58791826775453 -0.5 L 25 -0.5 Z M 144.12307451775453 0.5 L 170.71099278550906 0.5 L 170.71099278550906 3.5 L 177.71099278550906 0 L 170.71099278550906 -3.5 L 170.71099278550906 -0.5 L 144.12307451775453 -0.5 Z"/><text text-anchor="middle" pointer-events="none" font-size="8px" fill="#000000" x="97.85549639275453" y="3" font-family="sans-serif">FROM_TO_CHEAPEST</text></g><g class="relationship" transform="translate(-38.20303281388296 191.24424549583514) rotate(432.8297072288034)"><path class="outline" fill="#A5ABB6" stroke="none" d="M 24.018736134675446,6.953439040707552 L 24.277555179777966,5.987513214418485 A 265.8930779175987 265.8930779175987 0 0 0 44.71658866631104,10.609271376216668 L 44.53463899158328,11.592579220112157 A 266.8930779175987 266.8930779175987 0 0 1 24.018736134675446,6.953439040707552 Z M 136.77410290139335,12.449255036583622 L 136.61044801930944,11.462737383639649 A 265.8930779175987 265.8930779175987 0 0 0 157.1317976821606,7.221399577621005 L 156.40929617353285,4.309700491171542 L 164.04617913531396,6.020845905231186 L 158.09513302699756,11.10366502622029 L 157.37263151836981,8.191965939770826 A 266.8930779175987 266.8930779175987 0 0 1 136.77410290139335,12.449255036583622"/><text text-anchor="middle" pointer-events="none" font-size="8px" fill="#000000" x="90.62172350928343" y="18.536111613715605" font-family="sans-serif">FROM_TO_CHEAPEST</text></g><g class="relationship" transform="translate(-38.20303281388296 191.24424549583514) rotate(376.9625832160858)"><path class="outline" fill="#A5ABB6" stroke="none" d="M 25 0.5 L 37.77501485557835 0.5 L 37.77501485557835 -0.5 L 25 -0.5 Z M 130.31017110557835 0.5 L 143.0851859611567 0.5 L 143.0851859611567 3.5 L 150.0851859611567 0 L 143.0851859611567 -3.5 L 143.0851859611567 -0.5 L 130.31017110557835 -0.5 Z"/><text text-anchor="middle" pointer-events="none" font-size="8px" fill="#000000" x="84.04259298057835" y="3" font-family="sans-serif">FROM_TO_CHEAPEST</text></g><g class="relationship" transform="translate(-38.20303281388296 191.24424549583514) rotate(333.4998225213254)"><path class="outline" fill="#A5ABB6" stroke="none" d="M 24.018736134675446,-6.953439040707552 L 24.277555179777966,-5.987513214418485 A 213.43753910891527 213.43753910891527 0 0 1 31.47707127416897,-7.783090767207057 L 31.25198348423575,-8.75742925398822 A 214.43753910891527 214.43753910891527 0 0 0 24.018736134675446,-6.953439040707552 Z M 123.27674405005074,-9.748240962772229 L 123.07268701325157,-8.769281961724317 A 213.43753910891527 213.43753910891527 0 0 1 130.30919485782383,-7.12913411566972 L 129.59531003940498,-4.215310430881793 L 137.22709759206546,-5.949040153490399 L 131.26104128238228,-11.014232362053622 L 130.54715646396343,-8.100408677265696 A 214.43753910891527 214.43753910891527 0 0 0 123.27674405005074,-9.748240962772229"/><text text-anchor="middle" pointer-events="none" font-size="8px" fill="#000000" x="77.21596716757678" y="-10.747821842812158" font-family="sans-serif">FROM_TO_CHEAPEST</text></g><g class="relationship" transform="translate(-38.20303281388296 191.24424549583514) rotate(297.83382255835926)"><path class="outline" fill="#A5ABB6" stroke="none" d="M 25 0.5 L 63.24901740729743 0.5 L 63.24901740729743 -0.5 L 25 -0.5 Z M 155.78417365729743 0.5 L 194.03319106459486 0.5 L 194.03319106459486 3.5 L 201.03319106459486 0 L 194.03319106459486 -3.5 L 194.03319106459486 -0.5 L 155.78417365729743 -0.5 Z"/><text text-anchor="middle" pointer-events="none" font-size="8px" fill="#000000" x="109.51659553229743" y="3" font-family="sans-serif">FROM_TO_CHEAPEST</text></g><g class="relationship" transform="translate(-38.20303281388296 191.24424549583514) rotate(498.46845717160903)"><path class="outline" fill="#A5ABB6" stroke="none" d="M 24.018736134675446,6.953439040707552 L 24.277555179777966,5.987513214418485 A 173.0160470511982 173.0160470511982 0 0 0 25.058111161849887,6.194711278731688 L 24.803803582564413,7.1618346706098635 A 174.0160470511982 174.0160470511982 0 0 1 24.018736134675446,6.953439040707552 Z M 109.16979506023122,8.196643492638515 L 108.93928533153104,7.223573472046695 A 173.0160470511982 173.0160470511982 0 0 0 109.72468858163167,7.0355830102283985 L 109.01954094920514,4.1196325963010185 L 116.64609748619998,5.876230270221061 L 110.66488542486705,10.923516895464905 L 109.95973779244052,8.007566481537525 A 174.0160470511982 174.0160470511982 0 0 1 109.16979506023122,8.196643492638515"/><text text-anchor="middle" pointer-events="none" font-size="8px" fill="#000000" x="66.92926575664757" y="15.369840988055358" transform="rotate(180 66.92926575664757 12.369840988055358)" font-family="sans-serif">FROM_TO_CHEAP…</text></g><g class="relationship" transform="translate(-38.20303281388296 191.24424549583514) rotate(345.60254228061433)"><path class="outline" fill="#A5ABB6" stroke="none" d="M 24.018736134675446,-6.953439040707552 L 24.277555179777966,-5.987513214418485 A 350.6690310831977 350.6690310831977 0 0 1 66.33054805223296,-14.537183580856492 L 66.19165118201585,-15.527490432011177 A 351.6690310831977 351.6690310831977 0 0 0 24.018736134675446,-6.953439040707552 Z M 158.58802991450256,-16.229197743961834 L 158.4641900334968,-15.236895529980359 A 350.6690310831977 350.6690310831977 0 0 1 200.64218622237712,-7.326920157307232 L 199.90983064190692,-4.417683951057532 L 207.55246330037144,-6.1029631705850385 L 201.61866032967072,-11.205901765640165 L 200.88630474920052,-8.296665559390465 A 351.6690310831977 351.6690310831977 0 0 0 158.58802991450256,-16.229197743961834"/><text text-anchor="middle" pointer-events="none" font-size="8px" fill="#000000" x="112.37049119904856" y="-15.426143957597503" font-family="sans-serif">FROM_TO_CHEAPEST</text></g><g class="relationship" transform="translate(-38.20303281388296 191.24424549583514) rotate(392.6336263449256)"><path class="outline" fill="#A5ABB6" stroke="none" d="M 25 0.5 L 56.173088085843006 0.5 L 56.173088085843006 -0.5 L 25 -0.5 Z M 148.708244335843 0.5 L 179.881332421686 0.5 L 179.881332421686 3.5 L 186.881332421686 0 L 179.881332421686 -3.5 L 179.881332421686 -0.5 L 148.708244335843 -0.5 Z"/><text text-anchor="middle" pointer-events="none" font-size="8px" fill="#000000" x="102.440666210843" y="3" font-family="sans-serif">FROM_TO_CHEAPEST</text></g><g class="relationship" transform="translate(-38.20303281388296 191.24424549583514) rotate(199.7959533035987)"><path class="outline" fill="#A5ABB6" stroke="none" d="M 24.018736134675446,6.953439040707552 L 24.277555179777966,5.987513214418485 A 121.92011983384529 121.92011983384529 0 0 0 25.74509703120121,6.370971669030013 L 25.49831489890212,7.340042656717657 A 122.92011983384529 122.92011983384529 0 0 1 24.018736134675446,6.953439040707552 Z M 82.61368202394647,8.18896809271655 L 82.39580981648207,7.212990787030307 A 121.92011983384529 121.92011983384529 0 0 0 83.87409982856377,6.873317249245643 L 83.18410799556311,3.9537434326771375 L 90.80143737272373,5.749931941672184 L 84.79408893923132,10.766082338003649 L 84.10409710623065,7.846508521435144 A 122.92011983384529 122.92011983384529 0 0 1 82.61368202394647,8.18896809271655"/><text text-anchor="middle" pointer-events="none" font-size="8px" fill="#000000" x="54.01343259025854" y="13.628320328934635" transform="rotate(180 54.01343259025854 10.628320328934635)" font-family="sans-serif">FROM_TO_…</text></g><g class="relationship" transform="translate(-38.20303281388296 191.24424549583514) rotate(236.2736965834394)"><path class="outline" fill="#A5ABB6" stroke="none" d="M 25 0.5 L 56.32983490639812 0.5 L 56.32983490639812 -0.5 L 25 -0.5 Z M 148.8649911563981 0.5 L 180.19482606279624 0.5 L 180.19482606279624 3.5 L 187.19482606279624 0 L 180.19482606279624 -3.5 L 180.19482606279624 -0.5 L 148.8649911563981 -0.5 Z"/><text text-anchor="middle" pointer-events="none" font-size="8px" fill="#000000" x="102.59741303139812" y="3" transform="rotate(180 102.59741303139812 0)" font-family="sans-serif">FROM_TO_CHEAPEST</text></g><g class="relationship" transform="translate(-38.20303281388296 191.24424549583514) rotate(357.17415036550506)"><path class="outline" fill="#A5ABB6" stroke="none" d="M 25 0.5 L 44.86452302519346 0.5 L 44.86452302519346 -0.5 L 25 -0.5 Z M 137.39967927519348 0.5 L 157.26420230038693 0.5 L 157.26420230038693 3.5 L 164.26420230038693 0 L 157.26420230038693 -3.5 L 157.26420230038693 -0.5 L 137.39967927519348 -0.5 Z"/><text text-anchor="middle" pointer-events="none" font-size="8px" fill="#000000" x="91.13210115019346" y="3" font-family="sans-serif">FROM_TO_CHEAPEST</text></g><g class="relationship" transform="translate(-38.20303281388296 191.24424549583514) rotate(320.44855061007644)"><path class="outline" fill="#A5ABB6" stroke="none" d="M 25 0.5 L 25.074312554178746 0.5 L 25.074312554178746 -0.5 L 25 -0.5 Z M 78.03915630417875 0.5 L 78.11346885835749 0.5 L 78.11346885835749 3.5 L 85.11346885835749 0 L 78.11346885835749 -3.5 L 78.11346885835749 -0.5 L 78.03915630417875 -0.5 Z"/><text text-anchor="middle" pointer-events="none" font-size="8px" fill="#000000" x="51.556734429178746" y="3" font-family="sans-serif">FROM_TO…</text></g><g class="relationship" transform="translate(-38.20303281388296 191.24424549583514) rotate(450.9675479541153)"><path class="outline" fill="#A5ABB6" stroke="none" d="M 25 0.5 L 26.327713115015825 0.5 L 26.327713115015825 -0.5 L 25 -0.5 Z M 95.29646311501583 0.5 L 96.62417623003165 0.5 L 96.62417623003165 3.5 L 103.62417623003165 0 L 96.62417623003165 -3.5 L 96.62417623003165 -0.5 L 95.29646311501583 -0.5 Z"/><text text-anchor="middle" pointer-events="none" font-size="8px" fill="#000000" x="60.812088115015825" y="3" transform="rotate(180 60.812088115015825 0)" font-family="sans-serif">FROM_TO_CH…</text></g><g class="relationship" transform="translate(-38.20303281388296 191.24424549583514) rotate(537.5736219486868)"><path class="outline" fill="#A5ABB6" stroke="none" d="M 24.018736134675446,-6.953439040707552 L 24.277555179777966,-5.987513214418485 A 21.41862956686527 21.41862956686527 0 0 1 29.285851155596745,-6.710646263214965 L 29.260861075143143,-7.710333962388521 A 22.41862956686527 22.41862956686527 0 0 0 24.018736134675446,-6.953439040707552 Z M 29.260861075143143,-7.710333962388521 L 29.285851155596745,-6.710646263214965 A 21.41862956686527 21.41862956686527 0 0 1 34.324022747326666,-6.238653678580563 L 33.69332156708673,-3.305700214707679 L 41.27269769307005,-5.255843168666179 L 35.164957654313255,-10.14925829707774 L 34.53425647407332,-7.216304833204856 A 22.41862956686527 22.41862956686527 0 0 0 29.260861075143143,-7.710333962388521"/><text text-anchor="middle" pointer-events="none" font-size="8px" fill="#000000" x="29.273356115369943" y="-4.210490112801743" transform="rotate(180 29.273356115369943 -7.210490112801743)" font-family="sans-serif"/></g><g class="relationship" transform="translate(-38.20303281388296 191.24424549583514) rotate(396.5970204759701)"><path class="outline" fill="#A5ABB6" stroke="none" d="M 25 0.5 L 26.75835719554476 0.5 L 26.75835719554476 -0.5 L 25 -0.5 Z M 119.29351344554476 0.5 L 121.05187064108952 0.5 L 121.05187064108952 3.5 L 128.05187064108952 0 L 121.05187064108952 -3.5 L 121.05187064108952 -0.5 L 119.29351344554476 -0.5 Z"/><text text-anchor="middle" pointer-events="none" font-size="8px" fill="#000000" x="73.02593532054476" y="3" font-family="sans-serif">FROM_TO_CHEAPEST</text></g><g class="relationship" transform="translate(-38.20303281388296 191.24424549583514) rotate(290.2743442040399)"><path class="outline" fill="#A5ABB6" stroke="none" d="M 24.018736134675446,6.953439040707552 L 24.277555179777966,5.987513214418485 A 128.30511988837983 128.30511988837983 0 0 0 24.52797459008741,6.054341876473231 L 24.27110729414757,7.02078856009139 A 129.30511988837983 129.30511988837983 0 0 1 24.018736134675446,6.953439040707552 Z M 87.06695999383052,7.930188219969125 L 86.83818640599182,6.956708561472141 A 128.30511988837983 128.30511988837983 0 0 0 87.09043599900512,6.8971594728446455 L 86.39821719510141,3.97811286007497 L 94.01691456278498,5.76849003253093 L 88.01339440421006,10.789221623204213 L 87.32117560030635,7.8701750104345365 A 129.30511988837983 129.30511988837983 0 0 1 87.06695999383052,7.930188219969125"/><text text-anchor="middle" pointer-events="none" font-size="8px" fill="#000000" x="55.62022388002653" y="13.84589953413439" font-family="sans-serif">FROM_TO_C…</text></g><g class="relationship" transform="translate(-38.20303281388296 191.24424549583514) rotate(330.61875456756115)"><path class="outline" fill="#A5ABB6" stroke="none" d="M 25 0.5 L 60.67858292216877 0.5 L 60.67858292216877 -0.5 L 25 -0.5 Z M 153.21373917216877 0.5 L 188.89232209433754 0.5 L 188.89232209433754 3.5 L 195.89232209433754 0 L 188.89232209433754 -3.5 L 188.89232209433754 -0.5 L 153.21373917216877 -0.5 Z"/><text text-anchor="middle" pointer-events="none" font-size="8px" fill="#000000" x="106.94616104716877" y="3" font-family="sans-serif">FROM_TO_CHEAPEST</text></g><g class="relationship" transform="translate(-53.6710885442908 386.74260717583627) rotate(255.40329550378885)"><path class="outline" fill="#A5ABB6" stroke="none" d="M 25 0.5 L 49.80439972922974 0.5 L 49.80439972922974 -0.5 L 25 -0.5 Z M 142.33955597922974 0.5 L 167.1439557084595 0.5 L 167.1439557084595 3.5 L 174.1439557084595 0 L 167.1439557084595 -3.5 L 167.1439557084595 -0.5 L 142.33955597922974 -0.5 Z"/><text text-anchor="middle" pointer-events="none" font-size="8px" fill="#000000" x="96.07197785422974" y="3" transform="rotate(180 96.07197785422974 0)" font-family="sans-serif">FROM_TO_CHEAPEST</text></g><g class="relationship" transform="translate(106.33666342907773 119.1788522933544) rotate(208.23030307053193)"><path class="outline" fill="#A5ABB6" stroke="none" d="M 24.018736134675446,-6.953439040707552 L 24.277555179777966,-5.987513214418485 A 225.153008682626 225.153008682626 0 0 1 34.41977925530338,-8.454629283906314 L 34.20600612868478,-9.431512618975404 A 226.153008682626 226.153008682626 0 0 0 24.018736134675446,-6.953439040707552 Z M 126.29277555191679,-10.388986716153227 L 126.09936077526737,-9.407869636405024 A 225.153008682626 225.153008682626 0 0 1 136.29069040318205,-7.152172113756891 L 135.57465402202993,-4.238876402561997 L 143.20771979282884,-5.966969842934402 L 137.24540557805156,-11.036566395350082 L 136.52936919689944,-8.12327068415519 A 226.153008682626 226.153008682626 0 0 0 126.29277555191679,-10.388986716153227"/><text text-anchor="middle" pointer-events="none" font-size="8px" fill="#000000" x="80.20533685916119" y="-11.147219435555513" transform="rotate(180 80.20533685916119 -14.147219435555513)" font-family="sans-serif">FROM_TO_CHEAPEST</text></g><g class="relationship" transform="translate(106.33666342907773 119.1788522933544) rotate(500.7563113109778)"><path class="outline" fill="#A5ABB6" stroke="none" d="M 24.018736134675446,6.953439040707552 L 24.277555179777966,5.987513214418485 A 111.07951693212267 111.07951693212267 0 0 0 25.233792791014956,6.239180037976865 L 24.983582332244524,7.2073715099088815 A 112.07951693212267 112.07951693212267 0 0 1 24.018736134675446,6.953439040707552 Z M 77.68130763995472,8.02722314094278 L 77.46133651024076,7.051716758548295 A 111.07951693212267 111.07951693212267 0 0 0 78.4249401213592,6.829918111429878 L 77.73900203465651,3.9093892310366973 L 85.35383052339374,5.716150722522453 L 79.33952423696279,10.723956618620786 L 78.6535861502601,7.8034277382276045 A 112.07951693212267 112.07951693212267 0 0 1 77.68130763995472,8.02722314094278"/><text text-anchor="middle" pointer-events="none" font-size="8px" fill="#000000" x="51.29134705625539" y="13.258955078689851" transform="rotate(180 51.29134705625539 10.258955078689851)" font-family="sans-serif">FROM_TO…</text></g><g class="relationship" transform="translate(106.33666342907773 119.1788522933544) rotate(513.4998225213254)"><path class="outline" fill="#A5ABB6" stroke="none" d="M 24.018736134675446,-6.953439040707552 L 24.277555179777966,-5.987513214418485 A 213.43753910891527 213.43753910891527 0 0 1 31.47707127416897,-7.783090767207057 L 31.25198348423575,-8.75742925398822 A 214.43753910891527 214.43753910891527 0 0 0 24.018736134675446,-6.953439040707552 Z M 123.27674405005074,-9.748240962772229 L 123.07268701325157,-8.769281961724317 A 213.43753910891527 213.43753910891527 0 0 1 130.30919485782383,-7.12913411566972 L 129.59531003940498,-4.215310430881793 L 137.22709759206546,-5.949040153490399 L 131.26104128238228,-11.014232362053622 L 130.54715646396343,-8.100408677265696 A 214.43753910891527 214.43753910891527 0 0 0 123.27674405005074,-9.748240962772229"/><text text-anchor="middle" pointer-events="none" font-size="8px" fill="#000000" x="77.21596716757678" y="-10.747821842812158" transform="rotate(180 77.21596716757678 -13.747821842812158)" font-family="sans-serif">FROM_TO_CHEAPEST</text></g><g class="relationship" transform="translate(-16.019823930959287 250.32388684227544) rotate(276.31535684633184)"><path class="outline" fill="#A5ABB6" stroke="none" d="M 24.018736134675446,6.953439040707552 L 24.277555179777966,5.987513214418485 A 232.2892242575376 232.2892242575376 0 0 0 36.21689640775501,8.85072489836088 L 36.00947596397004,9.828976787957856 A 233.2892242575376 233.2892242575376 0 0 1 24.018736134675446,6.953439040707552 Z M 128.12927122881658,10.767177776289543 L 127.94181790353646,9.784904265071106 A 232.2892242575376 232.2892242575376 0 0 0 139.93699769939073,7.165455511943392 L 139.21972076817892,4.252464986048845 L 146.85352174834662,5.977307760098298 L 140.89336694100646,11.04944287980279 L 140.17609000979465,8.136452353908242 A 233.2892242575376 233.2892242575376 0 0 1 128.12927122881658,10.767177776289543"/><text text-anchor="middle" pointer-events="none" font-size="8px" fill="#000000" x="82.02769396404372" y="17.390504434206008" font-family="sans-serif">FROM_TO_CHEAPEST</text></g><g class="relationship" transform="translate(-16.019823930959287 250.32388684227544) rotate(249.4198598883376)"><path class="outline" fill="#A5ABB6" stroke="none" d="M 25 0.5 L 28.053521110834215 0.5 L 28.053521110834215 -0.5 L 25 -0.5 Z M 28.053521110834215 0.5 L 31.10704222166843 0.5 L 31.10704222166843 3.5 L 38.10704222166843 0 L 31.10704222166843 -3.5 L 31.10704222166843 -0.5 L 28.053521110834215 -0.5 Z"/><text text-anchor="middle" pointer-events="none" font-size="8px" fill="#000000" x="28.053521110834215" y="3" transform="rotate(180 28.053521110834215 0)" font-family="sans-serif"/></g><g class="relationship" transform="translate(-16.019823930959287 250.32388684227544) rotate(216.92275752912258)"><path class="outline" fill="#A5ABB6" stroke="none" d="M 24.018736134675446,-6.953439040707552 L 24.277555179777966,-5.987513214418485 A 216.85464993055317 216.85464993055317 0 0 1 32.334333849209585,-7.981880155978928 L 32.11266770201362,-8.957002773492889 A 217.85464993055317 217.85464993055317 0 0 0 24.018736134675446,-6.953439040707552 Z M 124.15661282072281,-9.937864114239233 L 123.95577733599103,-8.958239130853997 A 216.85464993055317 216.85464993055317 0 0 1 132.05322726141455,-7.136018855734642 L 131.33869946119754,-4.222352776253839 L 138.9708694135726,-5.95439833514175 L 133.00593099503723,-11.020906961709047 L 132.29140319482022,-8.107240882228243 A 217.85464993055317 217.85464993055317 0 0 0 124.15661282072281,-9.937864114239233"/><text text-anchor="middle" pointer-events="none" font-size="8px" fill="#000000" x="78.08757199153834" y="-10.864315897157638" transform="rotate(180 78.08757199153834 -13.864315897157638)" font-family="sans-serif">FROM_TO_CHEAPEST</text></g><g class="relationship" transform="translate(186.31332243587323 133.60886194731506) rotate(525.6025422806143)"><path class="outline" fill="#A5ABB6" stroke="none" d="M 24.018736134675446,-6.953439040707552 L 24.277555179777966,-5.987513214418485 A 350.6690310831977 350.6690310831977 0 0 1 66.33054805223296,-14.537183580856492 L 66.19165118201585,-15.527490432011177 A 351.6690310831977 351.6690310831977 0 0 0 24.018736134675446,-6.953439040707552 Z M 158.58802991450256,-16.229197743961834 L 158.4641900334968,-15.236895529980359 A 350.6690310831977 350.6690310831977 0 0 1 200.64218622237712,-7.326920157307232 L 199.90983064190692,-4.417683951057532 L 207.55246330037144,-6.1029631705850385 L 201.61866032967072,-11.205901765640165 L 200.88630474920052,-8.296665559390465 A 351.6690310831977 351.6690310831977 0 0 0 158.58802991450256,-16.229197743961834"/><text text-anchor="middle" pointer-events="none" font-size="8px" fill="#000000" x="112.37049119904856" y="-15.426143957597503" transform="rotate(180 112.37049119904856 -18.426143957597503)" font-family="sans-serif">FROM_TO_CHEAPEST</text></g><g class="relationship" transform="translate(2.804427312818251 80.23393564174923) rotate(514.2537305398237)"><path class="outline" fill="#A5ABB6" stroke="none" d="M 24.018736134675446,6.953439040707552 L 24.277555179777966,5.987513214418485 A 221.83875294917812 221.83875294917812 0 0 0 33.58629203915251,8.267457439464692 L 33.369434719562875,9.243660749713342 A 222.83875294917812 222.83875294917812 0 0 1 24.018736134675446,6.953439040707552 Z M 125.43970749184783,10.2103462200987 L 125.24339487778018,9.229804860666121 A 221.83875294917812 221.83875294917812 0 0 0 134.59795056604264,7.145814586793435 L 133.8825079238816,4.232373009246768 L 141.51522135401171,5.9620220180087555 L 135.55187408892405,11.030403356855658 L 134.83643144676302,8.11696177930899 A 222.83875294917812 222.83875294917812 0 0 1 125.43970749184783,10.2103462200987"/><text text-anchor="middle" pointer-events="none" font-size="8px" fill="#000000" x="79.35934766434912" y="17.034231336081604" transform="rotate(180 79.35934766434912 14.034231336081604)" font-family="sans-serif">FROM_TO_CHEAPEST</text></g><g class="relationship" transform="translate(2.804427312818251 80.23393564174923) rotate(456.31535684633184)"><path class="outline" fill="#A5ABB6" stroke="none" d="M 24.018736134675446,6.953439040707552 L 24.277555179777966,5.987513214418485 A 232.2892242575376 232.2892242575376 0 0 0 36.21689640775501,8.85072489836088 L 36.00947596397004,9.828976787957856 A 233.2892242575376 233.2892242575376 0 0 1 24.018736134675446,6.953439040707552 Z M 128.12927122881658,10.767177776289543 L 127.94181790353646,9.784904265071106 A 232.2892242575376 232.2892242575376 0 0 0 139.93699769939073,7.165455511943392 L 139.21972076817892,4.252464986048845 L 146.85352174834662,5.977307760098298 L 140.89336694100646,11.04944287980279 L 140.17609000979465,8.136452353908242 A 233.2892242575376 233.2892242575376 0 0 1 128.12927122881658,10.767177776289543"/><text text-anchor="middle" pointer-events="none" font-size="8px" fill="#000000" x="82.02769396404372" y="17.390504434206008" transform="rotate(180 82.02769396404372 14.390504434206008)" font-family="sans-serif">FROM_TO_CHEAPEST</text></g><g class="relationship" transform="translate(2.804427312818251 80.23393564174923) rotate(470.2743442040399)"><path class="outline" fill="#A5ABB6" stroke="none" d="M 24.018736134675446,6.953439040707552 L 24.277555179777966,5.987513214418485 A 128.30511988837983 128.30511988837983 0 0 0 24.52797459008741,6.054341876473231 L 24.27110729414757,7.02078856009139 A 129.30511988837983 129.30511988837983 0 0 1 24.018736134675446,6.953439040707552 Z M 87.06695999383052,7.930188219969125 L 86.83818640599182,6.956708561472141 A 128.30511988837983 128.30511988837983 0 0 0 87.09043599900512,6.8971594728446455 L 86.39821719510141,3.97811286007497 L 94.01691456278498,5.76849003253093 L 88.01339440421006,10.789221623204213 L 87.32117560030635,7.8701750104345365 A 129.30511988837983 129.30511988837983 0 0 1 87.06695999383052,7.930188219969125"/><text text-anchor="middle" pointer-events="none" font-size="8px" fill="#000000" x="55.62022388002653" y="13.84589953413439" transform="rotate(180 55.62022388002653 10.84589953413439)" font-family="sans-serif">FROM_TO_C…</text></g><g class="relationship" transform="translate(-41.226727802062825 39.95554482919318) rotate(274.29175787391864)"><path class="outline" fill="#A5ABB6" stroke="none" d="M 25 0.5 L 42.08994464090911 0.5 L 42.08994464090911 -0.5 L 25 -0.5 Z M 134.6251008909091 0.5 L 151.71504553181822 0.5 L 151.71504553181822 3.5 L 158.71504553181822 0 L 151.71504553181822 -3.5 L 151.71504553181822 -0.5 L 134.6251008909091 -0.5 Z"/><text text-anchor="middle" pointer-events="none" font-size="8px" fill="#000000" x="88.35752276590911" y="3" font-family="sans-serif">FROM_TO_CHEAPEST</text></g><g class="relationship" transform="translate(-41.226727802062825 39.95554482919318) rotate(299.27545728838226)"><path class="outline" fill="#A5ABB6" stroke="none" d="M 25 0.5 L 45.728742671205794 0.5 L 45.728742671205794 -0.5 L 25 -0.5 Z M 138.2638989212058 0.5 L 158.9926415924116 0.5 L 158.9926415924116 3.5 L 165.9926415924116 0 L 158.9926415924116 -3.5 L 158.9926415924116 -0.5 L 138.2638989212058 -0.5 Z"/><text text-anchor="middle" pointer-events="none" font-size="8px" fill="#000000" x="91.9963207962058" y="3" font-family="sans-serif">FROM_TO_CHEAPEST</text></g><g class="relationship" transform="translate(-41.226727802062825 39.95554482919318) rotate(388.23030307053193)"><path class="outline" fill="#A5ABB6" stroke="none" d="M 24.018736134675446,-6.953439040707552 L 24.277555179777966,-5.987513214418485 A 225.153008682626 225.153008682626 0 0 1 34.41977925530338,-8.454629283906314 L 34.20600612868478,-9.431512618975404 A 226.153008682626 226.153008682626 0 0 0 24.018736134675446,-6.953439040707552 Z M 126.29277555191679,-10.388986716153227 L 126.09936077526737,-9.407869636405024 A 225.153008682626 225.153008682626 0 0 1 136.29069040318205,-7.152172113756891 L 135.57465402202993,-4.238876402561997 L 143.20771979282884,-5.966969842934402 L 137.24540557805156,-11.036566395350082 L 136.52936919689944,-8.12327068415519 A 226.153008682626 226.153008682626 0 0 0 126.29277555191679,-10.388986716153227"/><text text-anchor="middle" pointer-events="none" font-size="8px" fill="#000000" x="80.20533685916119" y="-11.147219435555513" font-family="sans-serif">FROM_TO_CHEAPEST</text></g><g class="relationship" transform="translate(-41.226727802062825 39.95554482919318) rotate(472.1222553620619)"><path class="outline" fill="#A5ABB6" stroke="none" d="M 24.018736134675446,-6.953439040707552 L 24.277555179777966,-5.987513214418485 A 222.85884260915344 222.85884260915344 0 0 1 33.84274896381159,-8.325292801865999 L 33.62685033268971,-9.301708584757534 A 223.85884260915344 223.85884260915344 0 0 0 24.018736134675446,-6.953439040707552 Z M 125.702283402176,-10.26554087913155 L 125.50687179870397,-9.284819560290913 A 222.85884260915344 222.85884260915344 0 0 1 135.11890729492734,-7.147784430737798 L 134.4032806858684,-4.234388035393213 L 142.03610331890783,-5.963555075491062 L 136.0730761070059,-11.032312957863912 L 135.35744949794696,-8.118916562519326 A 223.85884260915344 223.85884260915344 0 0 0 125.702283402176,-10.26554087913155"/><text text-anchor="middle" pointer-events="none" font-size="8px" fill="#000000" x="79.61970809879497" y="-11.069007752835148" transform="rotate(180 79.61970809879497 -14.069007752835148)" font-family="sans-serif">FROM_TO_CHEAPEST</text></g><g class="relationship" transform="translate(-41.226727802062825 39.95554482919318) rotate(499.2003930927566)"><path class="outline" fill="#A5ABB6" stroke="none" d="M 24.018736134675446,6.953439040707552 L 24.277555179777966,5.987513214418485 A 82.40601570495002 82.40601570495002 0 0 0 25.681734197134773,6.350548509077228 L 25.439954915517294,7.3208797818807625 A 83.40601570495002 83.40601570495002 0 0 1 24.018736134675446,6.953439040707552 Z M 62.889227608920294,7.985043188647396 L 62.682007230538666,7.0067489002129975 A 82.40601570495002 82.40601570495002 0 0 0 64.0981760344492,6.693732516003493 L 63.42495911936048,3.770245046347014 L 71.03184961616243,5.610140959072583 L 64.99579858790081,10.591715808878797 L 64.32258167281209,7.668228339222319 A 83.40601570495002 83.40601570495002 0 0 1 62.889227608920294,7.985043188647396"/><text text-anchor="middle" pointer-events="none" font-size="8px" fill="#000000" x="44.13569323577003" y="12.282394937566863" transform="rotate(180 44.13569323577003 9.282394937566863)" font-family="sans-serif">FROM…</text></g><g class="relationship" transform="translate(-41.226727802062825 39.95554482919318) rotate(427.15453226105075)"><path class="outline" fill="#A5ABB6" stroke="none" d="M 24.018736134675446,6.953439040707552 L 24.277555179777966,5.987513214418485 A 212.96278724871695 212.96278724871695 0 0 0 31.358041445896497,7.75527159000913 L 31.132469928954137,8.729498201606418 A 213.96278724871695 213.96278724871695 0 0 1 24.018736134675446,6.953439040707552 Z M 123.15448794423361,9.721707585315812 L 122.94997524326797,8.74284367488508 A 212.96278724871695 212.96278724871695 0 0 0 130.06693195871725,7.128166447206827 L 129.3531375132819,4.214320622585072 L 136.98487129040723,5.948287045294627 L 131.01865788596436,11.013294213369168 L 130.304863440529,8.099448388747412 A 213.96278724871695 213.96278724871695 0 0 1 123.15448794423361,9.721707585315812"/><text text-anchor="middle" pointer-events="none" font-size="8px" fill="#000000" x="77.09489350740301" y="16.731636915802312" font-family="sans-serif">FROM_TO_CHEAPEST</text></g><g class="relationship" transform="translate(-41.226727802062825 39.95554482919318) rotate(524.765621985183)"><path class="outline" fill="#A5ABB6" stroke="none" d="M 24.018736134675446,-6.953439040707552 L 24.277555179777966,-5.987513214418485 A 150.49625439234828 150.49625439234828 0 0 1 24.635241601649945,-6.082883664412634 L 24.378799269664412,-7.049443197170888 A 151.49625439234828 151.49625439234828 0 0 0 24.018736134675446,-6.953439040707552 Z M 98.17307675821777,-8.030339558502533 L 97.94241610680254,-7.057305302225444 A 150.49625439234828 150.49625439234828 0 0 1 98.30251109415671,-6.971475824736262 L 97.60335098809307,-4.0540839850806645 L 105.22628540436371,-5.826334217197026 L 99.23472456890823,-10.861331610943726 L 98.53556446284459,-7.943939771288128 A 151.49625439234828 151.49625439234828 0 0 0 98.17307675821777,-8.030339558502533"/><text text-anchor="middle" pointer-events="none" font-size="8px" fill="#000000" x="61.221940404049946" y="-8.602211073483602" transform="rotate(180 61.221940404049946 -11.602211073483602)" font-family="sans-serif">FROM_TO_CHE…</text></g><g class="relationship" transform="translate(-41.226727802062825 39.95554482919318) rotate(463.10179880992973)"><path class="outline" fill="#A5ABB6" stroke="none" d="M 25 0.5 L 26.403148035912423 0.5 L 26.403148035912423 -0.5 L 25 -0.5 Z M 26.403148035912423 0.5 L 27.806296071824846 0.5 L 27.806296071824846 3.5 L 34.806296071824846 0 L 27.806296071824846 -3.5 L 27.806296071824846 -0.5 L 26.403148035912423 -0.5 Z"/><text text-anchor="middle" pointer-events="none" font-size="8px" fill="#000000" x="26.403148035912423" y="3" transform="rotate(180 26.403148035912423 0)" font-family="sans-serif"/></g><g class="relationship" transform="translate(-41.226727802062825 39.95554482919318) rotate(448.85502421181775)"><path class="outline" fill="#A5ABB6" stroke="none" d="M 24.018736134675446,-6.953439040707552 L 24.277555179777966,-5.987513214418485 A 193.43048789917393 193.43048789917393 0 0 1 26.478367366032614,-6.563369782796229 L 26.230926114628268,-7.532272681493225 A 194.43048789917393 194.43048789917393 0 0 0 24.018736134675446,-6.953439040707552 Z M 118.1210208482846,-8.585409893267922 L 117.89585054721829,-7.611090471559777 A 193.43048789917393 193.43048789917393 0 0 1 120.10928251344548,-7.085824826962368 L 119.39944250333686,-4.171013141784578 L 127.02881644721175,-5.915333417571875 L 121.05573586025697,-10.972240407199422 L 120.34589585014835,-8.057428722021632 A 194.43048789917393 194.43048789917393 0 0 0 118.1210208482846,-8.585409893267922"/><text text-anchor="middle" pointer-events="none" font-size="8px" fill="#000000" x="72.11858998875778" y="-10.06576205826579" font-family="sans-serif">FROM_TO_CHEAPEST</text></g><g class="relationship" transform="translate(-41.226727802062825 39.95554482919318) rotate(493.1592679989982)"><path class="outline" fill="#A5ABB6" stroke="none" d="M 24.018736134675446,6.953439040707552 L 24.277555179777966,5.987513214418485 A 198.59349395675252 198.59349395675252 0 0 0 27.76463071273121,6.888063919922246 L 27.52337052851319,7.85852438975661 A 199.59349395675252 199.59349395675252 0 0 1 24.018736134675446,6.953439040707552 Z M 119.45233267730421,8.894881055098324 L 119.2330119060693,7.919228248355637 A 198.59349395675252 198.59349395675252 0 0 0 122.73950325050285,7.0975191775062925 L 122.02857105433262,4.182973687648815 L 129.65859809286533,5.9244349680853166 L 123.6874128453965,10.983579830649596 L 122.97648064922626,8.069034340792118 A 199.59349395675252 199.59349395675252 0 0 1 119.45233267730421,8.894881055098324"/><text text-anchor="middle" pointer-events="none" font-size="8px" fill="#000000" x="73.43300548013526" y="16.24177216527636" transform="rotate(180 73.43300548013526 13.241772165276359)" font-family="sans-serif">FROM_TO_CHEAPEST</text></g><g class="relationship" transform="translate(-312.87368565645374 212.07811241102993) rotate(340.2188136178503)"><path class="outline" fill="#A5ABB6" stroke="none" d="M 24.018736134675446,-6.953439040707552 L 24.277555179777966,-5.987513214418485 A 243.3399498675693 243.3399498675693 0 0 1 39.00581271074935,-9.44703833340634 L 38.80751910562899,-10.427180999638324 A 244.3399498675693 244.3399498675693 0 0 0 24.018736134675446,-6.953439040707552 Z M 130.9725291907796,-11.336967969154557 L 130.7936228736805,-10.353101855446994 A 243.3399498675693 243.3399498675693 0 0 1 145.58730362916702,-7.184996167141864 L 144.8682017921553,-4.272455601243017 L 152.50308192243295,-5.9925153084309954 L 146.54610607851598,-11.068383588340327 L 145.82700424150426,-8.155843022441479 A 244.3399498675693 244.3399498675693 0 0 0 130.9725291907796,-11.336967969154557"/><text text-anchor="middle" pointer-events="none" font-size="8px" fill="#000000" x="84.85167256057105" y="-11.767241649276059" font-family="sans-serif">FROM_TO_CHEAPEST</text></g><g class="relationship" transform="translate(-96.41788569706499 16.429017343952193) rotate(470.2517418318739)"><path class="outline" fill="#A5ABB6" stroke="none" d="M 25 0.5 L 26.39838844387843 0.5 L 26.39838844387843 -0.5 L 25 -0.5 Z M 111.37495094387843 0.5 L 112.77333938775686 0.5 L 112.77333938775686 3.5 L 119.77333938775686 0 L 112.77333938775686 -3.5 L 112.77333938775686 -0.5 L 111.37495094387843 -0.5 Z"/><text text-anchor="middle" pointer-events="none" font-size="8px" fill="#000000" x="68.88666969387843" y="3" transform="rotate(180 68.88666969387843 0)" font-family="sans-serif">FROM_TO_CHEAP…</text></g></g><g class="layer nodes"><g class="node" transform="translate(-289.71692478385717,661.7524798165322)"><circle class="outline" cx="0" cy="0" r="25" fill="#ECB5C9" stroke="#da7298" stroke-width="2px"/><text text-anchor="middle" pointer-events="none" font-family="sans-serif" dy="1.5625" font-size="25" fill="#2A2C34"/><text text-anchor="middle" pointer-events="none" x="0" y="5" font-size="10px" fill="#2A2C34" font-family="sans-serif"> ABQ</text></g><g class="node" transform="translate(67.33383973070843,-8.638149917943874)"><circle class="outline" cx="0" cy="0" r="25" fill="#ECB5C9" stroke="#da7298" stroke-width="2px"/><text text-anchor="middle" pointer-events="none" font-family="sans-serif" dy="1.5625" font-size="25" fill="#2A2C34"/><text text-anchor="middle" pointer-events="none" x="0" y="5" font-size="10px" fill="#2A2C34" font-family="sans-serif"> AUS</text></g><g class="node" transform="translate(187.70741781896874,229.17240262709674)"><circle class="outline" cx="0" cy="0" r="25" fill="#ECB5C9" stroke="#da7298" stroke-width="2px"/><text text-anchor="middle" pointer-events="none" font-family="sans-serif" dy="1.5625" font-size="25" fill="#2A2C34"/><text text-anchor="middle" pointer-events="none" x="0" y="5" font-size="10px" fill="#2A2C34" font-family="sans-serif"> BDL</text></g><g class="node" transform="translate(-113.44012740079545,102.2876147052138)"><circle class="outline" cx="0" cy="0" r="25" fill="#ECB5C9" stroke="#da7298" stroke-width="2px"/><text text-anchor="middle" pointer-events="none" font-family="sans-serif" dy="1.5625" font-size="25" fill="#2A2C34"/><text text-anchor="middle" pointer-events="none" x="0" y="5" font-size="10px" fill="#2A2C34" font-family="sans-serif"> BOS</text></g><g class="node" transform="translate(46.70029856627601,121.12719803538242)"><circle class="outline" cx="0" cy="0" r="25" fill="#ECB5C9" stroke="#da7298" stroke-width="2px"/><text text-anchor="middle" pointer-events="none" font-family="sans-serif" dy="1.5625" font-size="25" fill="#2A2C34"/><text text-anchor="middle" pointer-events="none" x="0" y="5" font-size="10px" fill="#2A2C34" font-family="sans-serif"> BWI</text></g><g class="node" transform="translate(-321.4833415262934,108.97545282703126)"><circle class="outline" cx="0" cy="0" r="25" fill="#ECB5C9" stroke="#da7298" stroke-width="2px"/><text text-anchor="middle" pointer-events="none" font-family="sans-serif" dy="1.5625" font-size="25" fill="#2A2C34"/><text text-anchor="middle" pointer-events="none" x="0" y="5" font-size="10px" fill="#2A2C34" font-family="sans-serif"> BZN</text></g><g class="node" transform="translate(-188.62960729409627,245.06749051261957)"><circle class="outline" cx="0" cy="0" r="25" fill="#ECB5C9" stroke="#da7298" stroke-width="2px"/><text text-anchor="middle" pointer-events="none" font-family="sans-serif" dy="1.5625" font-size="25" fill="#2A2C34"/><text text-anchor="middle" pointer-events="none" x="0" y="5" font-size="10px" fill="#2A2C34" font-family="sans-serif"> CMH</text></g><g class="node" transform="translate(-252.43478244282147,121.93285392134366)"><circle class="outline" cx="0" cy="0" r="25" fill="#ECB5C9" stroke="#da7298" stroke-width="2px"/><text text-anchor="middle" pointer-events="none" font-family="sans-serif" dy="1.5625" font-size="25" fill="#2A2C34"/><text text-anchor="middle" pointer-events="none" x="0" y="5" font-size="10px" fill="#2A2C34" font-family="sans-serif"> CRP</text></g><g class="node" transform="translate(-146.530537024141,152.25258663313534)"><circle class="outline" cx="0" cy="0" r="25" fill="#ECB5C9" stroke="#da7298" stroke-width="2px"/><text text-anchor="middle" pointer-events="none" font-family="sans-serif" dy="1.5625" font-size="25" fill="#2A2C34"/><text text-anchor="middle" pointer-events="none" x="0" y="5" font-size="10px" fill="#2A2C34" font-family="sans-serif"> DEN</text></g><g class="node" transform="translate(-10.428190338543924,138.53745266657756)"><circle class="outline" cx="0" cy="0" r="25" fill="#ECB5C9" stroke="#da7298" stroke-width="2px"/><text text-anchor="middle" pointer-events="none" font-family="sans-serif" dy="1.5625" font-size="25" fill="#2A2C34"/><text text-anchor="middle" pointer-events="none" x="0" y="5" font-size="10px" fill="#2A2C34" font-family="sans-serif"> DFW</text></g><g class="node" transform="translate(-166.2125217031038,73.9939750483243)"><circle class="outline" cx="0" cy="0" r="25" fill="#ECB5C9" stroke="#da7298" stroke-width="2px"/><text text-anchor="middle" pointer-events="none" font-family="sans-serif" dy="1.5625" font-size="25" fill="#2A2C34"/><text text-anchor="middle" pointer-events="none" x="0" y="5" font-size="10px" fill="#2A2C34" font-family="sans-serif"> EWR</text></g><g class="node" transform="translate(140.22987607396064,305.504457532272)"><circle class="outline" cx="0" cy="0" r="25" fill="#ECB5C9" stroke="#da7298" stroke-width="2px"/><text text-anchor="middle" pointer-events="none" font-family="sans-serif" dy="1.5625" font-size="25" fill="#2A2C34"/><text text-anchor="middle" pointer-events="none" x="0" y="5" font-size="10px" fill="#2A2C34" font-family="sans-serif"> FAR</text></g><g class="node" transform="translate(394.6296023412645,632.7865826031411)"><circle class="outline" cx="0" cy="0" r="25" fill="#ECB5C9" stroke="#da7298" stroke-width="2px"/><text text-anchor="middle" pointer-events="none" font-family="sans-serif" dy="1.5625" font-size="25" fill="#2A2C34"/><text text-anchor="middle" pointer-events="none" x="0" y="5" font-size="10px" fill="#2A2C34" font-family="sans-serif"> FAT</text></g><g class="node" transform="translate(-244.5696967933187,181.33229410789806)"><circle class="outline" cx="0" cy="0" r="25" fill="#ECB5C9" stroke="#da7298" stroke-width="2px"/><text text-anchor="middle" pointer-events="none" font-family="sans-serif" dy="1.5625" font-size="25" fill="#2A2C34"/><text text-anchor="middle" pointer-events="none" x="0" y="5" font-size="10px" fill="#2A2C34" font-family="sans-serif"> FLL</text></g><g class="node" transform="translate(7.458886761849924,-6.256984112352403)"><circle class="outline" cx="0" cy="0" r="25" fill="#ECB5C9" stroke="#da7298" stroke-width="2px"/><text text-anchor="middle" pointer-events="none" font-family="sans-serif" dy="1.5625" font-size="25" fill="#2A2C34"/><text text-anchor="middle" pointer-events="none" x="0" y="5" font-size="10px" fill="#2A2C34" font-family="sans-serif"> GRR</text></g><g class="node" transform="translate(21.384673196478342,188.5719365768998)"><circle class="outline" cx="0" cy="0" r="25" fill="#ECB5C9" stroke="#da7298" stroke-width="2px"/><text text-anchor="middle" pointer-events="none" font-family="sans-serif" dy="1.5625" font-size="25" fill="#2A2C34"/><text text-anchor="middle" pointer-events="none" x="0" y="5" font-size="10px" fill="#2A2C34" font-family="sans-serif"> IAD</text></g><g class="node" transform="translate(-103.85809320073855,194.02628804632775)"><circle class="outline" cx="0" cy="0" r="25" fill="#ECB5C9" stroke="#da7298" stroke-width="2px"/><text text-anchor="middle" pointer-events="none" font-family="sans-serif" dy="1.5625" font-size="25" fill="#2A2C34"/><text text-anchor="middle" pointer-events="none" x="0" y="5" font-size="10px" fill="#2A2C34" font-family="sans-serif"> IAH</text></g><g class="node" transform="translate(-84.59912193131858,274.4196075278879)"><circle class="outline" cx="0" cy="0" r="25" fill="#ECB5C9" stroke="#da7298" stroke-width="2px"/><text text-anchor="middle" pointer-events="none" font-family="sans-serif" dy="1.5625" font-size="25" fill="#2A2C34"/><text text-anchor="middle" pointer-events="none" x="0" y="5" font-size="10px" fill="#2A2C34" font-family="sans-serif"> LAS</text></g><g class="node" transform="translate(-143.71367783889025,284.6957821361883)"><circle class="outline" cx="0" cy="0" r="25" fill="#ECB5C9" stroke="#da7298" stroke-width="2px"/><text text-anchor="middle" pointer-events="none" font-family="sans-serif" dy="1.5625" font-size="25" fill="#2A2C34"/><text text-anchor="middle" pointer-events="none" x="0" y="5" font-size="10px" fill="#2A2C34" font-family="sans-serif"> LGA</text></g><g class="node" transform="translate(-54.783731757553134,98.20501429958057)"><circle class="outline" cx="0" cy="0" r="25" fill="#ECB5C9" stroke="#da7298" stroke-width="2px"/><text text-anchor="middle" pointer-events="none" font-family="sans-serif" dy="1.5625" font-size="25" fill="#2A2C34"/><text text-anchor="middle" pointer-events="none" x="0" y="5" font-size="10px" fill="#2A2C34" font-family="sans-serif"> MCO</text></g><g class="node" transform="translate(-281.87304032709375,30.623801348177537)"><circle class="outline" cx="0" cy="0" r="25" fill="#ECB5C9" stroke="#da7298" stroke-width="2px"/><text text-anchor="middle" pointer-events="none" font-family="sans-serif" dy="1.5625" font-size="25" fill="#2A2C34"/><text text-anchor="middle" pointer-events="none" x="0" y="5" font-size="10px" fill="#2A2C34" font-family="sans-serif"> MEM</text></g><g class="node" transform="translate(-225.9751106166342,330.03967612797874)"><circle class="outline" cx="0" cy="0" r="25" fill="#ECB5C9" stroke="#da7298" stroke-width="2px"/><text text-anchor="middle" pointer-events="none" font-family="sans-serif" dy="1.5625" font-size="25" fill="#2A2C34"/><text text-anchor="middle" pointer-events="none" x="0" y="5" font-size="10px" fill="#2A2C34" font-family="sans-serif"> MFE</text></g><g class="node" transform="translate(73.82577415783976,351.2734833331381)"><circle class="outline" cx="0" cy="0" r="25" fill="#ECB5C9" stroke="#da7298" stroke-width="2px"/><text text-anchor="middle" pointer-events="none" font-family="sans-serif" dy="1.5625" font-size="25" fill="#2A2C34"/><text text-anchor="middle" pointer-events="none" x="0" y="5" font-size="10px" fill="#2A2C34" font-family="sans-serif"> MIA</text></g><g class="node" transform="translate(17.388572263056936,371.1618847473758)"><circle class="outline" cx="0" cy="0" r="25" fill="#ECB5C9" stroke="#da7298" stroke-width="2px"/><text text-anchor="middle" pointer-events="none" font-family="sans-serif" dy="1.5625" font-size="25" fill="#2A2C34"/><text text-anchor="middle" pointer-events="none" x="0" y="5" font-size="10px" fill="#2A2C34" font-family="sans-serif"> MSN</text></g><g class="node" transform="translate(129.26515691289865,242.32484624296316)"><circle class="outline" cx="0" cy="0" r="25" fill="#ECB5C9" stroke="#da7298" stroke-width="2px"/><text text-anchor="middle" pointer-events="none" font-family="sans-serif" dy="1.5625" font-size="25" fill="#2A2C34"/><text text-anchor="middle" pointer-events="none" x="0" y="5" font-size="10px" fill="#2A2C34" font-family="sans-serif"> MSY</text></g><g class="node" transform="translate(-228.9825276622807,-22.202128910285538)"><circle class="outline" cx="0" cy="0" r="25" fill="#ECB5C9" stroke="#da7298" stroke-width="2px"/><text text-anchor="middle" pointer-events="none" font-family="sans-serif" dy="1.5625" font-size="25" fill="#2A2C34"/><text text-anchor="middle" pointer-events="none" x="0" y="5" font-size="10px" fill="#2A2C34" font-family="sans-serif"> OKC</text></g><g class="node" transform="translate(154.2768931820452,82.87037388080711)"><circle class="outline" cx="0" cy="0" r="25" fill="#ECB5C9" stroke="#da7298" stroke-width="2px"/><text text-anchor="middle" pointer-events="none" font-family="sans-serif" dy="1.5625" font-size="25" fill="#2A2C34"/><text text-anchor="middle" pointer-events="none" x="0" y="5" font-size="10px" fill="#2A2C34" font-family="sans-serif"> OMA</text></g><g class="node" transform="translate(-38.20303281388296,191.24424549583514)"><circle class="outline" cx="0" cy="0" r="25" fill="#ECB5C9" stroke="#da7298" stroke-width="2px"/><text text-anchor="middle" pointer-events="none" font-family="sans-serif" dy="1.5625" font-size="25" fill="#2A2C34"/><text text-anchor="middle" pointer-events="none" x="0" y="5" font-size="10px" fill="#2A2C34" font-family="sans-serif"> ORD</text></g><g class="node" transform="translate(-40.37499285797413,319.85008245676437)"><circle class="outline" cx="0" cy="0" r="25" fill="#ECB5C9" stroke="#da7298" stroke-width="2px"/><text text-anchor="middle" pointer-events="none" font-family="sans-serif" dy="1.5625" font-size="25" fill="#2A2C34"/><text text-anchor="middle" pointer-events="none" x="0" y="5" font-size="10px" fill="#2A2C34" font-family="sans-serif"> ORF</text></g><g class="node" transform="translate(-53.6710885442908,386.74260717583627)"><circle class="outline" cx="0" cy="0" r="25" fill="#ECB5C9" stroke="#da7298" stroke-width="2px"/><text text-anchor="middle" pointer-events="none" font-family="sans-serif" dy="1.5625" font-size="25" fill="#2A2C34"/><text text-anchor="middle" pointer-events="none" x="0" y="5" font-size="10px" fill="#2A2C34" font-family="sans-serif"> PBI</text></g><g class="node" transform="translate(106.33666342907773,119.1788522933544)"><circle class="outline" cx="0" cy="0" r="25" fill="#ECB5C9" stroke="#da7298" stroke-width="2px"/><text text-anchor="middle" pointer-events="none" font-family="sans-serif" dy="1.5625" font-size="25" fill="#2A2C34"/><text text-anchor="middle" pointer-events="none" x="0" y="5" font-size="10px" fill="#2A2C34" font-family="sans-serif"> PDX</text></g><g class="node" transform="translate(-16.019823930959287,250.32388684227544)"><circle class="outline" cx="0" cy="0" r="25" fill="#ECB5C9" stroke="#da7298" stroke-width="2px"/><text text-anchor="middle" pointer-events="none" font-family="sans-serif" dy="1.5625" font-size="25" fill="#2A2C34"/><text text-anchor="middle" pointer-events="none" x="0" y="5" font-size="10px" fill="#2A2C34" font-family="sans-serif"> PHX</text></g><g class="node" transform="translate(150.83102356697387,181.91344699834127)"><circle class="outline" cx="0" cy="0" r="25" fill="#ECB5C9" stroke="#da7298" stroke-width="2px"/><text text-anchor="middle" pointer-events="none" font-family="sans-serif" dy="1.5625" font-size="25" fill="#2A2C34"/><text text-anchor="middle" pointer-events="none" x="0" y="5" font-size="10px" fill="#2A2C34" font-family="sans-serif"> PIT</text></g><g class="node" transform="translate(52.170365178218816,-126.64329119699283)"><circle class="outline" cx="0" cy="0" r="25" fill="#ECB5C9" stroke="#da7298" stroke-width="2px"/><text text-anchor="middle" pointer-events="none" font-family="sans-serif" dy="1.5625" font-size="25" fill="#2A2C34"/><text text-anchor="middle" pointer-events="none" x="0" y="5" font-size="10px" fill="#2A2C34" font-family="sans-serif"> PSP</text></g><g class="node" transform="translate(-27.478361161252504,-143.2443470088423)"><circle class="outline" cx="0" cy="0" r="25" fill="#ECB5C9" stroke="#da7298" stroke-width="2px"/><text text-anchor="middle" pointer-events="none" font-family="sans-serif" dy="1.5625" font-size="25" fill="#2A2C34"/><text text-anchor="middle" pointer-events="none" x="0" y="5" font-size="10px" fill="#2A2C34" font-family="sans-serif"> RNO</text></g><g class="node" transform="translate(186.31332243587323,133.60886194731506)"><circle class="outline" cx="0" cy="0" r="25" fill="#ECB5C9" stroke="#da7298" stroke-width="2px"/><text text-anchor="middle" pointer-events="none" font-family="sans-serif" dy="1.5625" font-size="25" fill="#2A2C34"/><text text-anchor="middle" pointer-events="none" x="0" y="5" font-size="10px" fill="#2A2C34" font-family="sans-serif"> ROC</text></g><g class="node" transform="translate(115.63526814219958,36.99130445490775)"><circle class="outline" cx="0" cy="0" r="25" fill="#ECB5C9" stroke="#da7298" stroke-width="2px"/><text text-anchor="middle" pointer-events="none" font-family="sans-serif" dy="1.5625" font-size="25" fill="#2A2C34"/><text text-anchor="middle" pointer-events="none" x="0" y="5" font-size="10px" fill="#2A2C34" font-family="sans-serif"> RSW</text></g><g class="node" transform="translate(2.804427312818251,80.23393564174923)"><circle class="outline" cx="0" cy="0" r="25" fill="#ECB5C9" stroke="#da7298" stroke-width="2px"/><text text-anchor="middle" pointer-events="none" font-family="sans-serif" dy="1.5625" font-size="25" fill="#2A2C34"/><text text-anchor="middle" pointer-events="none" x="0" y="5" font-size="10px" fill="#2A2C34" font-family="sans-serif"> SEA</text></g><g class="node" transform="translate(-41.226727802062825,39.95554482919318)"><circle class="outline" cx="0" cy="0" r="25" fill="#ECB5C9" stroke="#da7298" stroke-width="2px"/><text text-anchor="middle" pointer-events="none" font-family="sans-serif" dy="1.5625" font-size="25" fill="#2A2C34"/><text text-anchor="middle" pointer-events="none" x="0" y="5" font-size="10px" fill="#2A2C34" font-family="sans-serif"> SFO</text></g><g class="node" transform="translate(-156.0191817068618,14.761953840701098)"><circle class="outline" cx="0" cy="0" r="25" fill="#ECB5C9" stroke="#da7298" stroke-width="2px"/><text text-anchor="middle" pointer-events="none" font-family="sans-serif" dy="1.5625" font-size="25" fill="#2A2C34"/><text text-anchor="middle" pointer-events="none" x="0" y="5" font-size="10px" fill="#2A2C34" font-family="sans-serif"> SGF</text></g><g class="node" transform="translate(-312.87368565645374,212.07811241102993)"><circle class="outline" cx="0" cy="0" r="25" fill="#ECB5C9" stroke="#da7298" stroke-width="2px"/><text text-anchor="middle" pointer-events="none" font-family="sans-serif" dy="1.5625" font-size="25" fill="#2A2C34"/><text text-anchor="middle" pointer-events="none" x="0" y="5" font-size="10px" fill="#2A2C34" font-family="sans-serif"> SJC</text></g><g class="node" transform="translate(-96.41788569706499,16.429017343952193)"><circle class="outline" cx="0" cy="0" r="25" fill="#ECB5C9" stroke="#da7298" stroke-width="2px"/><text text-anchor="middle" pointer-events="none" font-family="sans-serif" dy="1.5625" font-size="25" fill="#2A2C34"/><text text-anchor="middle" pointer-events="none" x="0" y="5" font-size="10px" fill="#2A2C34" font-family="sans-serif"> SMF</text></g><g class="node" transform="translate(84.67442878315882,282.4911881197079)"><circle class="outline" cx="0" cy="0" r="25" fill="#ECB5C9" stroke="#da7298" stroke-width="2px"/><text text-anchor="middle" pointer-events="none" font-family="sans-serif" dy="1.5625" font-size="25" fill="#2A2C34"/><text text-anchor="middle" pointer-events="none" x="0" y="5" font-size="10px" fill="#2A2C34" font-family="sans-serif"> TPA</text></g><g class="node" transform="translate(-153.13435086445793,373.95372359510543)"><circle class="outline" cx="0" cy="0" r="25" fill="#ECB5C9" stroke="#da7298" stroke-width="2px"/><text text-anchor="middle" pointer-events="none" font-family="sans-serif" dy="1.5625" font-size="25" fill="#2A2C34"/><text text-anchor="middle" pointer-events="none" x="0" y="5" font-size="10px" fill="#2A2C34" font-family="sans-serif"> TUL</text></g><g class="node" transform="translate(-573.8099552607084,-52.06841676404478)"><circle class="outline" cx="0" cy="0" r="25" fill="#ECB5C9" stroke="#da7298" stroke-width="2px"/><text text-anchor="middle" pointer-events="none" font-family="sans-serif" dy="1.5625" font-size="25" fill="#2A2C34"/><text text-anchor="middle" pointer-events="none" x="0" y="5" font-size="10px" fill="#2A2C34" font-family="sans-serif"> TUS</text></g></g></svg>